<svg width="648" height="531" viewBox="0 0 648 531" fill="none" xmlns="http://www.w3.org/2000/svg">
<g clip-path="url(#clip0_815_243)">
<path d="M190.911 204.018L324.335 149.947C325.521 149.465 326.857 149.499 328.023 150.043L455.319 209.539C458.986 211.252 458.851 216.528 455.096 218.051L328.273 269.444C322.878 271.633 316.811 271.47 311.538 269.008L190.687 212.524C187.02 210.811 187.156 205.535 190.911 204.012V204.018Z" fill="#7DAD0A" stroke="black" stroke-width="2" stroke-linejoin="round"/>
<path d="M190.911 198.018L324.335 143.947C325.521 143.465 326.857 143.499 328.023 144.043L455.319 203.539C458.986 205.252 458.851 210.528 455.096 212.051L328.273 263.444C322.878 265.633 316.811 265.47 311.538 263.008L190.687 206.524C187.02 204.811 187.156 199.535 190.911 198.012V198.018Z" fill="#A4D827" stroke="black" stroke-width="2" stroke-linejoin="round"/>
<path d="M324.159 77.7948L398.693 112.632L321.217 144.036L246.683 109.192L324.159 77.7948Z" fill="#C79F31" stroke="black" stroke-width="2" stroke-linejoin="round"/>
<path d="M398.693 112.632L397.012 209.441L319.529 240.838L321.217 144.036L398.693 112.632Z" fill="#FFC32E" stroke="black" stroke-width="2" stroke-linejoin="round"/>
<path d="M321.217 144.036L319.529 240.838L244.995 206L246.683 109.192L321.217 144.036Z" fill="#FFAB31" stroke="black" stroke-width="2" stroke-linejoin="round"/>
<path d="M324.701 53.0198L410.779 93.2553L321.305 129.513L235.221 89.278L324.701 53.0198Z" fill="#FFE299" stroke="black" stroke-width="2" stroke-linejoin="round"/>
<path d="M260.104 89.9307L324.416 63.8708L385.896 92.6026L321.583 118.669L260.104 89.9307Z" fill="black" stroke="black" stroke-width="2" stroke-linejoin="round"/>
<path d="M410.779 93.2553L410.155 129.106L320.682 165.371L321.305 129.513L410.779 93.2553Z" fill="#FFC32E" stroke="black" stroke-width="2" stroke-linejoin="round"/>
<path d="M321.305 129.513L320.682 165.371L234.597 125.135L235.221 89.278L321.305 129.513Z" fill="#FFAB31" stroke="black" stroke-width="2" stroke-linejoin="round"/>
<path d="M397.134 202.438L356.79 218.204" stroke="black" stroke-width="2" stroke-linecap="round" stroke-linejoin="round"/>
<path d="M397.249 195.537L373.871 204.607" stroke="black" stroke-width="2" stroke-linecap="round" stroke-linejoin="round"/>
<path d="M220.919 200.079C221.813 200.079 222.539 199.351 222.539 198.454C222.539 197.556 221.813 196.829 220.919 196.829C220.024 196.829 219.299 197.556 219.299 198.454C219.299 199.351 220.024 200.079 220.919 200.079Z" fill="black"/>
<path d="M226.246 205.966C227.205 205.966 227.982 205.187 227.982 204.226C227.982 203.265 227.205 202.485 226.246 202.485C225.288 202.485 224.511 203.265 224.511 204.226C224.511 205.187 225.288 205.966 226.246 205.966Z" fill="black"/>
<path d="M431.555 212.058C432.513 212.058 433.29 211.279 433.29 210.318C433.29 209.356 432.513 208.577 431.555 208.577C430.596 208.577 429.819 209.356 429.819 210.318C429.819 211.279 430.596 212.058 431.555 212.058Z" fill="black"/>
<path d="M440.177 205.966C441.135 205.966 441.912 205.187 441.912 204.226C441.912 203.265 441.135 202.485 440.177 202.485C439.218 202.485 438.441 203.265 438.441 204.226C438.441 205.187 439.218 205.966 440.177 205.966Z" fill="black"/>
</g>
<path d="M128.77 334.9L325.61 255.37C327.36 254.66 329.33 254.71 331.05 255.51L518.85 343.02C524.26 345.54 524.06 353.3 518.52 355.54L331.42 431.13C323.46 434.35 314.51 434.11 306.73 430.49L128.44 347.41C123.03 344.89 123.23 337.13 128.77 334.89V334.9Z" fill="#7DAD0A" stroke="black" stroke-width="2" stroke-linejoin="round"/>
<path d="M128.77 327.9L325.61 248.37C327.36 247.66 329.33 247.71 331.05 248.51L518.85 336.02C524.26 338.54 524.06 346.3 518.52 348.54L331.42 424.13C323.46 427.35 314.51 427.11 306.73 423.49L128.44 340.41C123.03 337.89 123.23 330.13 128.77 327.89V327.9Z" fill="#A4D827" stroke="black" stroke-width="2" stroke-linejoin="round"/>
<path d="M275.84 353.94C277.254 353.94 278.4 352.794 278.4 351.38C278.4 349.966 277.254 348.82 275.84 348.82C274.426 348.82 273.28 349.966 273.28 351.38C273.28 352.794 274.426 353.94 275.84 353.94Z" fill="black"/>
<path d="M358.42 359.07C359.834 359.07 360.98 357.924 360.98 356.51C360.98 355.096 359.834 353.95 358.42 353.95C357.006 353.95 355.86 355.096 355.86 356.51C355.86 357.924 357.006 359.07 358.42 359.07Z" fill="black"/>
<path d="M461.49 339.69C462.904 339.69 464.05 338.544 464.05 337.13C464.05 335.716 462.904 334.57 461.49 334.57C460.076 334.57 458.93 335.716 458.93 337.13C458.93 338.544 460.076 339.69 461.49 339.69Z" fill="black"/>
<path d="M356.121 186.528L371.412 194.848C392.373 206.248 406.283 229.578 406.236 258.316C406.155 302.922 372.459 343.939 331.133 349.75L315.842 341.43C357.167 335.619 390.864 294.602 390.944 249.996C390.998 221.251 377.082 197.928 356.121 186.528Z" fill="black"/>
<path d="M379.041 305.116L363.75 296.796C366.628 296.394 368.809 294.985 369.882 292.831C370.949 290.69 370.748 288.147 369.325 285.678L384.617 293.998C386.039 296.467 386.241 299.01 385.174 301.151C384.1 303.305 381.92 304.714 379.041 305.116Z" fill="#FF3145"/>
<path d="M379.041 303.184L363.75 294.864C365.964 294.555 367.587 293.562 368.326 292.086L383.617 300.406C382.879 301.882 381.255 302.875 379.041 303.184Z" fill="black"/>
<path d="M383.624 300.406L368.333 292.086C369.064 290.617 368.869 288.758 367.776 286.859L383.067 295.179C384.168 297.078 384.362 298.937 383.624 300.406Z" fill="black"/>
<path d="M346.076 309.753L330.784 301.433L363.75 296.796L379.041 305.116L346.076 309.753Z" fill="#FF3145"/>
<path d="M346.083 307.82L330.784 299.5L363.75 294.864L379.041 303.184L346.083 307.82Z" fill="black"/>
<path d="M384.617 293.998L369.325 285.678L353.014 256.974L368.305 265.294L384.617 293.998Z" fill="#FF3145"/>
<path d="M383.06 295.179L367.769 286.859L351.457 258.155L366.756 266.475L383.06 295.179Z" fill="black"/>
<path d="M342.688 307.411L327.396 299.091C328.241 299.554 329.402 299.695 330.791 299.5L346.083 307.82C344.694 308.015 343.533 307.874 342.688 307.411Z" fill="black"/>
<path d="M330.784 301.433C331.08 301.486 331.402 301.768 331.663 301.909C336.467 304.526 341.272 307.136 346.083 309.753C344.338 310.001 342.855 309.8 341.721 309.182L326.43 300.862C327.564 301.48 329.046 301.681 330.791 301.433H330.784Z" fill="#FF3145"/>
<path d="M349.33 255.873L364.622 264.194C365.4 264.616 366.132 265.388 366.756 266.475L351.464 258.155C350.84 257.074 350.109 256.303 349.33 255.873Z" fill="black"/>
<path d="M353.014 256.974C352.236 255.632 351.31 254.666 350.283 254.109L365.575 262.429C366.601 262.986 367.527 263.952 368.306 265.294C363.716 262.798 356.751 260.617 353.014 256.974Z" fill="#FF3145"/>
<path d="M341.567 306.331C337.695 304.224 333.824 302.117 329.952 300.017C333.824 302.124 337.695 304.231 341.567 306.331Z" fill="white"/>
<path d="M342.09 300.936L326.799 292.623L343.513 259.275L358.811 267.595L342.09 300.936Z" fill="white"/>
<path d="M340.54 300.191L325.242 291.878L341.97 258.517L357.261 266.837L340.54 300.191Z" fill="black"/>
<path d="M326.269 298.011C325.524 296.743 325.719 294.824 326.792 292.616L342.084 300.936C341.003 303.144 340.816 305.056 341.56 306.331C336.461 303.56 331.368 300.789 326.269 298.011C331.368 300.782 336.461 303.553 341.56 306.331C341.829 306.787 342.204 307.149 342.681 307.411L327.389 299.091C326.913 298.829 326.53 298.467 326.269 298.011Z" fill="white"/>
<path d="M347.492 255.525C348.122 255.437 348.74 255.558 349.323 255.88L364.615 264.2C364.024 263.878 363.407 263.757 362.783 263.845C357.684 261.074 352.591 258.302 347.492 255.525C352.591 258.296 357.684 261.067 362.783 263.845C361.327 264.053 359.918 265.388 358.804 267.602L343.513 259.282C344.627 257.068 346.036 255.733 347.492 255.525Z" fill="white"/>
<path d="M341.715 309.176L326.423 300.856C325.705 300.467 325.135 299.91 324.719 299.198C323.645 297.353 323.833 294.757 325.242 291.871L340.534 300.191C339.118 303.077 338.93 305.68 340.01 307.518C340.42 308.23 340.997 308.787 341.715 309.176Z" fill="black"/>
<path d="M384.617 293.998C386.039 296.468 386.241 299.011 385.174 301.151C384.1 303.305 381.92 304.714 379.041 305.116L346.076 309.746C343.231 310.149 341.077 309.357 340.01 307.518C338.937 305.673 339.125 303.077 340.534 300.191L357.261 266.837C358.704 263.952 360.663 262.207 362.79 261.906C364.917 261.604 366.87 262.805 368.305 265.287L384.617 293.992V293.998ZM383.624 300.406C384.355 298.937 384.161 297.078 383.067 295.179L366.756 266.475C365.655 264.576 364.253 263.637 362.79 263.845C361.327 264.053 359.925 265.381 358.811 267.595L342.09 300.943C341.01 303.15 340.822 305.063 341.567 306.338C342.298 307.606 343.909 308.129 346.083 307.827L379.048 303.197C381.262 302.889 382.886 301.896 383.624 300.42" fill="black"/>
<path d="M350.283 254.102L365.575 262.422C364.702 261.946 363.763 261.771 362.79 261.905C360.67 262.201 358.704 263.952 357.261 266.837L341.97 258.517C343.412 255.632 345.372 253.887 347.499 253.585C348.478 253.451 349.418 253.626 350.283 254.102Z" fill="black"/>
<path d="M319.935 305.465L304.636 297.152L333.582 239.146L348.881 247.466L319.935 305.465Z" fill="#FF3145"/>
<path d="M318.405 304.674L303.113 296.353L332.019 238.428L347.31 246.748L318.405 304.674Z" fill="black"/>
<path d="M283.367 318.563L268.075 310.243L292.076 306.874L307.374 315.188L283.367 318.563Z" fill="#FF3145"/>
<path d="M283.373 316.63L268.082 308.31L292.029 304.949L307.32 313.269L283.373 316.63Z" fill="black"/>
<path d="M292.076 306.874C297.148 305.828 301.832 302.211 304.636 297.152L319.928 305.472C317.123 310.531 312.44 314.148 307.367 315.194C302.778 312.698 296.658 309.37 292.076 306.874Z" fill="#FF3145"/>
<path d="M307.32 313.269L292.029 304.949C296.544 304.009 300.604 300.876 303.113 296.353L318.405 304.674C315.895 309.196 311.836 312.329 307.32 313.269Z" fill="black"/>
<path d="M291.163 342.859L275.872 334.539C287.439 340.832 301.147 343.49 315.849 341.423L331.14 349.743C316.446 351.81 302.731 349.146 291.163 342.859Z" fill="black"/>
<path d="M348.881 247.466L333.589 239.146C335.83 233.886 335.837 228.055 333.616 223.425L348.907 231.745C351.128 236.375 351.115 242.206 348.881 247.466Z" fill="#FF3145"/>
<path d="M347.311 246.748L332.019 238.428C333.978 233.805 333.985 228.618 332.032 224.539L347.324 232.859C349.27 236.932 349.27 242.118 347.311 246.748Z" fill="black"/>
<path d="M348.908 231.745L333.616 223.425L325.048 208.328L340.346 216.648L348.908 231.745Z" fill="#FF3145"/>
<path d="M347.324 232.866L332.032 224.546L323.491 209.502L338.783 217.822L347.324 232.866Z" fill="black"/>
<path d="M279.904 316.221L264.613 307.901C265.472 308.364 266.653 308.512 268.082 308.31L283.373 316.63C281.944 316.832 280.763 316.684 279.904 316.221Z" fill="black"/>
<path d="M268.075 310.243C268.37 310.296 268.692 310.578 268.954 310.719C273.758 313.336 278.562 315.946 283.373 318.563C281.595 318.811 280.086 318.61 278.945 317.986L263.653 309.666C264.794 310.29 266.304 310.491 268.082 310.243H268.075Z" fill="#FF3145"/>
<path d="M340.346 216.648L325.047 208.328L321.417 201.739L336.709 210.059L340.346 216.648Z" fill="#FF3145"/>
<path d="M278.804 315.168C274.932 313.061 271.061 310.954 267.189 308.854C271.061 310.961 274.932 313.067 278.804 315.168Z" fill="white"/>
<path d="M338.782 217.822L323.491 209.502L319.854 202.913L335.146 211.233L338.782 217.822Z" fill="black"/>
<path d="M279.388 309.746L264.096 301.426L311.977 204.027L327.275 212.347L279.388 309.746Z" fill="white"/>
<path d="M277.838 309.008L262.54 300.688L310.427 203.282L325.725 211.602L277.838 309.008Z" fill="black"/>
<path d="M264.096 301.426C269.196 304.204 274.288 306.975 279.388 309.746C278.281 311.98 278.073 313.906 278.804 315.161C273.705 312.39 268.612 309.619 263.512 306.841C268.612 309.612 273.705 312.383 278.804 315.161C279.066 315.61 279.435 315.966 279.904 316.221L264.613 307.901C264.143 307.646 263.767 307.29 263.512 306.841C262.781 305.586 262.989 303.66 264.096 301.426Z" fill="white"/>
<path d="M317.727 200.639L333.019 208.959C333.797 209.381 334.522 210.153 335.146 211.233L319.854 202.913C319.23 201.833 318.499 201.061 317.727 200.639Z" fill="black"/>
<path d="M321.418 201.739C320.639 200.39 319.707 199.424 318.68 198.861L333.971 207.181C334.998 207.738 335.931 208.711 336.709 210.059C332.12 207.563 325.155 205.382 321.418 201.739Z" fill="#FF3145"/>
<path d="M278.938 317.992L263.646 309.672C262.935 309.283 262.365 308.74 261.956 308.035C260.895 306.203 261.097 303.6 262.539 300.695L277.831 309.015C276.388 311.92 276.187 314.53 277.247 316.355C277.656 317.06 278.227 317.61 278.938 317.992Z" fill="black"/>
<path d="M315.922 200.283C316.54 200.196 317.144 200.317 317.721 200.632L333.012 208.952C332.435 208.637 331.825 208.516 331.214 208.603C329.771 208.804 328.376 210.14 327.269 212.347L311.977 204.027C313.084 201.82 314.48 200.484 315.922 200.283Z" fill="white"/>
<path d="M318.674 198.867L333.965 207.187C333.106 206.718 332.18 206.543 331.221 206.677C329.114 206.973 327.161 208.724 325.719 211.609L310.427 203.289C311.87 200.404 313.822 198.653 315.929 198.357C316.889 198.223 317.815 198.398 318.674 198.867Z" fill="black"/>
<path d="M241.041 271.064C241.122 226.458 274.812 185.448 316.137 179.637L331.429 187.957C290.103 193.768 256.413 234.778 256.333 279.384C256.286 306.109 268.31 328.158 286.849 340.289C281.75 337.518 276.65 334.74 271.557 331.969C253.018 319.838 240.994 297.796 241.041 271.064Z" fill="#FF3145"/>
<path d="M331.435 187.957C372.761 182.147 406.316 213.709 406.236 258.316C406.155 302.922 372.459 343.939 331.133 349.75C289.808 355.56 256.253 323.991 256.34 279.384C256.427 234.778 290.11 193.768 331.435 187.957ZM319.935 305.472L348.881 247.466C351.122 242.206 351.129 236.375 348.908 231.745L340.346 216.655L336.709 210.066C335.273 207.59 333.328 206.382 331.221 206.677C329.114 206.973 327.161 208.724 325.719 211.609L277.831 309.008C276.389 311.913 276.187 314.523 277.247 316.349C278.308 318.18 280.481 318.965 283.367 318.563L307.368 315.188C312.44 314.141 317.124 310.524 319.928 305.465L319.935 305.472ZM379.035 305.116C381.913 304.714 384.094 303.305 385.167 301.151C386.234 299.01 386.033 296.467 384.61 293.998L368.299 265.294C366.863 262.811 364.91 261.61 362.783 261.912C360.656 262.214 358.697 263.959 357.255 266.844L340.527 300.198C339.111 303.083 338.924 305.687 340.004 307.525C341.071 309.364 343.225 310.155 346.069 309.753L379.035 305.123" fill="#FF3145"/>
<path d="M383.06 295.179C384.161 297.078 384.355 298.937 383.617 300.406C382.879 301.882 381.255 302.875 379.041 303.184L346.076 307.814C343.902 308.122 342.292 307.592 341.56 306.324C340.815 305.056 341.01 303.137 342.084 300.929L358.804 267.589C359.918 265.374 361.327 264.039 362.783 263.831C364.239 263.623 365.648 264.563 366.749 266.461L383.06 295.166V295.179Z" fill="white"/>
<path d="M271.557 331.962C276.657 334.733 281.756 337.511 286.849 340.282C288.251 341.201 289.694 342.06 291.17 342.865L275.878 334.545C274.402 333.74 272.966 332.881 271.557 331.962Z" fill="#FF3145"/>
<path d="M347.324 232.866C349.27 236.938 349.27 242.125 347.31 246.755L318.405 304.68C315.895 309.203 311.836 312.336 307.32 313.275L283.373 316.644C281.159 316.952 279.528 316.436 278.804 315.174C278.072 313.92 278.28 311.994 279.387 309.76L327.275 212.347C328.382 210.14 329.778 208.804 331.22 208.603C332.663 208.402 334.059 209.341 335.146 211.227L338.782 217.816L347.324 232.859V232.866Z" fill="white"/>
<path d="M316.144 179.637C330.831 177.571 344.546 180.228 356.107 186.515L371.399 194.835C359.831 188.548 346.123 185.891 331.435 187.957C326.846 185.461 320.727 182.133 316.144 179.637Z" fill="#FF3145"/>
<path d="M331.435 186.025C373.754 180.08 408.108 212.394 408.021 258.061C407.933 303.734 373.438 345.731 331.127 351.675C288.808 357.62 254.454 325.306 254.541 279.633C254.629 233.966 289.124 191.97 331.435 186.025ZM331.133 349.743C372.459 343.932 406.155 302.916 406.236 258.309C406.316 213.703 372.761 182.14 331.435 187.951C290.11 193.761 256.42 234.778 256.34 279.384C256.259 323.991 289.808 355.56 331.133 349.75" fill="black"/>
<path d="M348.908 247.399L319.935 305.465C317.13 310.524 312.447 314.141 307.374 315.188L283.374 318.563C280.495 318.965 278.321 318.18 277.254 316.349C276.194 314.517 276.395 311.913 277.838 309.008L325.726 211.602C327.168 208.717 329.121 206.966 331.228 206.671C333.334 206.376 335.28 207.583 336.716 210.059L340.353 216.648L348.914 231.738C351.135 236.368 351.122 242.199 348.914 247.399H348.908ZM347.311 246.748C349.27 242.125 349.277 236.938 347.324 232.859L338.783 217.816L335.146 211.227C334.052 209.341 332.657 208.395 331.221 208.603C329.785 208.811 328.383 210.14 327.275 212.347L279.388 309.746C278.281 311.98 278.073 313.906 278.804 315.161C279.536 316.422 281.159 316.939 283.374 316.63L307.321 313.262C311.836 312.323 315.896 309.189 318.405 304.667L347.311 246.741" fill="black"/>
<path d="M357.08 184.757L372.372 193.077C360.529 186.635 346.485 183.911 331.435 186.025L316.144 177.705C331.194 175.591 345.237 178.315 357.08 184.757Z" fill="black"/>
<path d="M290.197 344.623L274.906 336.303C253.441 324.628 239.196 300.742 239.25 271.313C239.337 225.646 273.832 183.65 316.144 177.705L331.435 186.025C289.117 191.97 254.622 233.966 254.541 279.633C254.488 309.062 268.733 332.948 290.197 344.623Z" fill="black"/>
<g clip-path="url(#clip1_815_243)">
<path d="M497.29 263.07L488.17 258.11C493.98 261.27 500.87 262.61 508.26 261.57L517.38 266.53C510 267.57 503.1 266.23 497.29 263.07Z" fill="black"/>
<path d="M528.51 183.72L537.63 188.68C548.16 194.41 555.16 206.13 555.13 220.58C555.09 243 538.15 263.62 517.38 266.54L508.26 261.58C529.03 258.66 545.97 238.04 546.01 215.62C546.04 201.18 539.04 189.45 528.51 183.72Z" fill="black"/>
<path d="M486.6 257.19C489.64 258.84 492.68 260.5 495.72 262.15C496.24 262.47 496.77 262.78 497.3 263.07L488.18 258.11C487.64 257.82 487.11 257.51 486.6 257.19Z" fill="#FFC627"/>
<path d="M508.42 180.26C515.81 179.22 522.7 180.56 528.52 183.72L537.64 188.68C531.83 185.52 524.93 184.18 517.54 185.22C514.8 183.73 511.16 181.75 508.42 180.26Z" fill="#FFC627"/>
<path d="M529.94 181.08L539.06 186.04C532.83 182.65 525.45 181.22 517.54 182.33L508.42 177.37C516.33 176.26 523.71 177.69 529.94 181.08Z" fill="black"/>
<path d="M470.68 226.21C470.72 203.79 487.65 183.18 508.42 180.26L517.54 185.22C496.76 188.14 479.83 208.75 479.79 231.16C479.76 244.87 486.06 256.13 495.71 262.14C492.67 260.49 489.63 258.83 486.59 257.18C476.94 251.17 470.65 239.91 470.67 226.2L470.68 226.21Z" fill="#FFC627"/>
<path d="M517.54 182.33C539.78 179.2 557.84 196.19 557.8 220.2C557.76 244.21 539.62 266.28 517.38 269.41C495.14 272.54 477.07 255.55 477.12 231.54C477.16 207.53 495.3 185.46 517.54 182.33ZM517.38 266.53C538.15 263.61 555.09 242.99 555.13 220.57C555.17 198.15 538.3 182.29 517.53 185.21C496.76 188.13 479.83 208.75 479.79 231.16C479.75 253.58 496.61 269.45 517.38 266.53Z" fill="black"/>
<path d="M517.53 185.22C538.3 182.3 555.17 198.16 555.13 220.58C555.09 243 538.15 263.62 517.38 266.54C496.61 269.46 479.75 253.59 479.79 231.17C479.83 208.75 496.76 188.14 517.53 185.22Z" fill="#FFC627"/>
<path d="M531.955 234.901L531.948 234.4L531.91 233.8L531.841 233.215L531.746 232.653L531.625 232.115L531.472 231.591L531.293 231.092L531.09 230.608L530.868 230.143L530.622 229.694L530.351 229.261L530.063 228.847L529.756 228.45L529.433 228.064L529.086 227.695L528.727 227.345L528.359 227.007L527.967 226.679L527.573 226.365L527.162 226.062L526.74 225.778L526.31 225.499L525.87 225.233L525.423 224.972L524.972 224.725L524.519 224.492L524.057 224.265L523.594 224.044L523.13 223.83L522.663 223.629L522.202 223.431L521.734 223.237L521.278 223.053L520.9 222.907L520.528 222.768L520.164 222.624L519.798 222.487L519.44 222.351L519.088 222.217L518.738 222.076L518.4 221.944L518.062 221.812L517.732 221.675L517.416 221.541L517.107 221.408L516.805 221.276L516.511 221.139L516.232 220.998L515.96 220.858L515.702 220.721L515.453 220.571L515.218 220.424L514.997 220.28L514.792 220.125L514.603 219.966L514.42 219.808L514.261 219.64L514.115 219.476L513.979 219.299L513.872 219.12L513.774 218.929L513.697 218.743L513.643 218.546L513.606 218.339L513.584 218.127L513.591 217.807L513.63 217.501L513.703 217.209L513.813 216.945L513.954 216.702L514.128 216.472L514.34 216.271L514.59 216.093L514.871 215.935L515.191 215.799L515.541 215.69L515.93 215.603L516.357 215.538L516.813 215.508L517.308 215.492L517.833 215.511L518.332 215.554L518.832 215.625L519.328 215.716L519.832 215.838L520.337 215.989L520.84 216.154L521.351 216.348L521.856 216.571L522.366 216.808L522.879 217.067L523.394 217.348L523.906 217.643L524.421 217.96L524.941 218.292L525.463 218.646L525.982 219.014L530.803 212.92L530.287 212.539L529.748 212.16L529.194 211.786L528.619 211.414L528.027 211.053L527.419 210.696L526.787 210.356L526.14 210.02L525.475 209.702L524.786 209.4L524.078 209.116L523.352 208.857L522.602 208.607L521.838 208.391L521.049 208.191L520.24 208.022L520.045 202.735L511.675 202.273L511.885 207.991L511.361 208.108L510.849 208.242L510.349 208.385L509.869 208.539L509.398 208.717L508.946 208.905L508.507 209.103L508.085 209.319L507.676 209.544L507.285 209.788L506.906 210.041L506.545 210.311L506.198 210.585L505.867 210.883L505.557 211.185L505.259 211.497L504.986 211.829L504.725 212.169L504.483 212.521L504.254 212.882L504.051 213.256L503.86 213.639L503.689 214.034L503.537 214.439L503.404 214.855L503.29 215.282L503.196 215.72L503.127 216.171L503.072 216.624L503.037 217.088L503.021 217.564L503.032 218.044L503.065 218.594L503.132 219.121L503.228 219.64L503.349 220.143L503.502 220.63L503.673 221.1L503.875 221.554L504.093 221.998L504.342 222.433L504.603 222.842L504.893 223.25L505.194 223.638L505.519 224.017L505.853 224.384L506.211 224.734L506.578 225.078L506.963 225.405L507.356 225.726L507.76 226.028L508.172 226.324L508.601 226.61L509.031 226.888L509.464 227.153L509.913 227.407L510.357 227.652L510.809 227.893L511.263 228.119L511.713 228.337L512.17 228.55L512.622 228.754L513.068 228.95L513.518 229.133L513.886 229.292L514.255 229.444L514.625 229.596L514.996 229.741L515.358 229.892L515.714 230.042L516.065 230.183L516.413 230.331L516.756 230.478L517.091 230.623L517.418 230.774L517.738 230.924L518.044 231.07L518.35 231.217L518.642 231.368L518.918 231.523L519.187 231.677L519.441 231.835L519.687 231.998L519.919 232.158L520.135 232.33L520.337 232.499L520.524 232.672L520.689 232.847L520.846 233.029L520.98 233.213L521.1 233.401L521.203 233.6L521.284 233.802L521.343 234.006L521.379 234.22L521.4 234.439L521.401 234.611L521.396 234.781L521.385 234.943L521.36 235.102L521.322 235.259L521.285 235.409L521.228 235.554L521.171 235.693L521.101 235.829L521.019 235.955L520.93 236.08L520.827 236.203L520.72 236.31L520.605 236.422L520.478 236.519L520.337 236.619L520.191 236.704L520.032 236.787L519.859 236.867L519.681 236.938L519.49 237L519.292 237.061L519.082 237.111L518.859 237.153L518.63 237.193L518.388 237.223L518.134 237.244L517.866 237.262L517.593 237.272L517.301 237.27L517.009 237.262L516.698 237.25L516.1 237.202L515.495 237.125L514.896 237.012L514.287 236.877L513.679 236.705L513.069 236.505L512.457 236.276L511.836 236.024L511.216 235.736L510.593 235.419L509.961 235.079L509.321 234.708L508.679 234.309L508.03 233.879L507.378 233.421L506.717 232.939L501.87 239.271L502.465 239.725L503.077 240.168L503.72 240.597L504.379 241.014L505.056 241.413L505.75 241.801L506.456 242.163L507.179 242.515L507.919 242.848L508.663 243.167L509.411 243.459L510.171 243.732L510.936 243.978L511.704 244.209L512.47 244.412L513.234 244.593L513.436 250.096L521.806 250.558L521.598 244.904L522.247 244.805L522.871 244.679L523.477 244.543L524.058 244.388L524.621 244.214L525.165 244.03L525.692 243.821L526.193 243.599L526.676 243.36L527.14 243.11L527.58 242.84L528 242.56L528.395 242.26L528.778 241.951L529.135 241.63L529.467 241.289L529.787 240.938L530.081 240.576L530.355 240.202L530.603 239.816L530.833 239.419L531.043 239.011L531.233 238.592L531.398 238.16L531.542 237.725L531.668 237.272L531.766 236.813L531.844 236.35L531.903 235.876L531.943 235.391L531.955 234.901Z" fill="#EC7202"/>
<path d="M495.86 265.7L486.74 260.74C475.46 254.61 467.97 242.05 468 226.58C468.04 202.57 486.18 180.5 508.42 177.37L517.54 182.33C495.29 185.46 477.16 207.53 477.12 231.54C477.09 247.01 484.58 259.57 495.86 265.7Z" fill="black"/>
</g>
<g clip-path="url(#clip2_815_243)">
<path d="M309.29 86.07L300.17 81.11C305.98 84.27 312.87 85.61 320.26 84.57L329.38 89.53C322 90.57 315.1 89.23 309.29 86.07Z" fill="black"/>
<path d="M340.51 6.72L349.63 11.68C360.16 17.41 367.16 29.13 367.13 43.58C367.09 66 350.15 86.62 329.38 89.54L320.26 84.58C341.03 81.66 357.97 61.04 358.01 38.62C358.04 24.18 351.04 12.45 340.51 6.72Z" fill="black"/>
<path d="M298.6 80.19C301.64 81.84 304.68 83.5 307.72 85.15C308.24 85.47 308.77 85.78 309.3 86.07L300.18 81.11C299.64 80.82 299.11 80.51 298.6 80.19Z" fill="#FFC627"/>
<path d="M320.42 3.26C327.81 2.22 334.7 3.56 340.52 6.72L349.64 11.68C343.83 8.52 336.93 7.18 329.54 8.22C326.8 6.73 323.16 4.75 320.42 3.26Z" fill="#FFC627"/>
<path d="M341.94 4.08L351.06 9.04C344.83 5.65 337.45 4.22 329.54 5.33L320.42 0.369999C328.33 -0.740001 335.71 0.689999 341.94 4.08Z" fill="black"/>
<path d="M282.68 49.21C282.72 26.79 299.65 6.18 320.42 3.26L329.54 8.22C308.76 11.14 291.83 31.75 291.79 54.16C291.76 67.87 298.06 79.13 307.71 85.14C304.67 83.49 301.63 81.83 298.59 80.18C288.94 74.17 282.65 62.91 282.67 49.2L282.68 49.21Z" fill="#FFC627"/>
<path d="M329.54 5.33C351.78 2.2 369.84 19.19 369.8 43.2C369.76 67.21 351.62 89.28 329.38 92.41C307.14 95.54 289.07 78.55 289.12 54.54C289.16 30.53 307.3 8.46 329.54 5.33ZM329.38 89.53C350.15 86.61 367.09 65.99 367.13 43.57C367.17 21.15 350.3 5.29 329.53 8.21C308.76 11.13 291.83 31.75 291.79 54.16C291.75 76.58 308.61 92.45 329.38 89.53Z" fill="black"/>
<path d="M329.53 8.22C350.3 5.3 367.17 21.16 367.13 43.58C367.09 66 350.15 86.62 329.38 89.54C308.61 92.46 291.75 76.59 291.79 54.17C291.83 31.75 308.76 11.14 329.53 8.22Z" fill="#FFC627"/>
<path d="M344.955 56.901L344.948 56.3997L344.91 55.7996L344.841 55.2145L344.746 54.6529L344.625 54.1146L344.472 53.5914L344.293 53.0916L344.09 52.6083L343.868 52.1428L343.622 51.6938L343.351 51.2614L343.063 50.8468L342.756 50.45L342.433 50.0643L342.086 49.6951L341.727 49.3451L341.359 49.0074L340.967 48.6794L340.573 48.3651L340.162 48.0618L339.74 47.7778L339.31 47.4993L338.87 47.2331L338.423 46.9724L337.972 46.7254L337.519 46.4922L337.057 46.2645L336.594 46.0437L336.13 45.8297L335.663 45.6294L335.202 45.4306L334.734 45.2372L334.278 45.0534L333.9 44.9067L333.528 44.7682L333.164 44.6242L332.798 44.4871L332.44 44.3513L332.088 44.2169L331.738 44.0757L331.4 43.944L331.062 43.8124L330.732 43.6752L330.416 43.5408L330.107 43.4078L329.805 43.2761L329.511 43.1389L329.232 42.9976L328.96 42.8577L328.702 42.7205L328.453 42.571L328.218 42.4241L327.997 42.2801L327.792 42.125L327.603 41.9658L327.42 41.808L327.261 41.6405L327.115 41.4758L326.979 41.2987L326.872 41.1202L326.774 40.9294L326.697 40.7426L326.643 40.5463L326.606 40.3389L326.584 40.1274L326.591 39.8074L326.63 39.5011L326.703 39.2085L326.813 38.9448L326.954 38.7016L327.128 38.4721L327.34 38.2715L327.59 38.0928L327.871 37.9347L328.191 37.7985L328.541 37.6898L328.93 37.6031L329.357 37.5383L329.813 37.5078L330.308 37.4924L330.833 37.5113L331.332 37.5536L331.832 37.6247L332.328 37.7165L332.832 37.8384L333.337 37.9892L333.84 38.1537L334.351 38.3484L334.856 38.5706L335.366 38.8079L335.879 39.0672L336.394 39.3484L336.906 39.6434L337.421 39.9604L337.941 40.2924L338.463 40.6465L338.982 41.0142L343.803 34.9204L343.287 34.5389L342.748 34.1601L342.194 33.7855L341.619 33.4137L341.027 33.0528L340.419 32.6961L339.787 32.3559L339.14 32.0197L338.475 31.7015L337.786 31.3998L337.078 31.1159L336.352 30.8567L335.602 30.6072L334.838 30.3907L334.049 30.1906L333.24 30.0221L333.045 24.7347L324.675 24.2726L324.885 29.9913L324.361 30.1084L323.849 30.2419L323.349 30.385L322.869 30.5391L322.398 30.7166L321.946 30.905L321.507 31.103L321.085 31.3189L320.676 31.5444L320.285 31.7877L319.906 32.0406L319.545 32.3114L319.198 32.5849L318.867 32.8831L318.557 33.1854L318.259 33.4974L317.986 33.8285L317.725 34.1693L317.483 34.521L317.254 34.8823L317.051 35.256L316.86 35.6393L316.689 36.0336L316.537 36.4388L316.404 36.855L316.29 37.2822L316.196 37.7204L316.127 38.1709L316.072 38.6242L316.037 39.0884L316.021 39.5636L316.032 40.0443L316.065 40.5936L316.132 41.121L316.228 41.6401L316.349 42.1427L316.502 42.6301L316.673 43.0997L316.875 43.5542L317.093 43.9977L317.342 44.4329L317.603 44.842L317.893 45.2498L318.194 45.6383L318.519 46.0171L318.853 46.3836L319.211 46.7336L319.578 47.0782L319.963 47.4048L320.356 47.726L320.76 48.0279L321.172 48.3243L321.601 48.6097L322.031 48.8882L322.464 49.1531L322.913 49.4069L323.357 49.6525L323.809 49.8925L324.263 50.1189L324.713 50.337L325.17 50.5496L325.622 50.754L326.068 50.9501L326.518 51.1325L326.886 51.2916L327.255 51.4438L327.625 51.5961L327.996 51.7414L328.358 51.8923L328.714 52.0418L329.065 52.183L329.413 52.3312L329.756 52.4779L330.091 52.6233L330.418 52.7742L330.738 52.9237L331.044 53.0705L331.35 53.2173L331.642 53.3682L331.918 53.5232L332.187 53.6769L332.441 53.8346L332.687 53.9979L332.919 54.1585L333.135 54.33L333.337 54.4988L333.524 54.6718L333.689 54.8475L333.846 55.0287L333.98 55.2126L334.1 55.4007L334.203 55.5998L334.284 55.8017L334.343 56.0063L334.379 56.2205L334.4 56.4388L334.401 56.6105L334.396 56.7808L334.385 56.9429L334.36 57.1022L334.322 57.2588L334.285 57.4085L334.228 57.5541L334.171 57.6929L334.101 57.8289L334.019 57.9553L333.93 58.0803L333.827 58.2026L333.72 58.3098L333.605 58.4225L333.478 58.5187L333.337 58.6191L333.191 58.7043L333.032 58.7868L332.859 58.8665L332.681 58.9381L332.49 59L332.292 59.0605L332.082 59.1115L331.859 59.1528L331.63 59.1928L331.388 59.2231L331.134 59.2439L330.866 59.2619L330.593 59.2716L330.301 59.2704L330.009 59.2624L329.698 59.2502L329.1 59.2025L328.495 59.1245L327.896 59.0123L327.287 58.8767L326.679 58.7053L326.069 58.5052L325.457 58.2762L324.836 58.0238L324.216 57.7358L323.593 57.4189L322.961 57.0787L322.321 56.7082L321.679 56.3089L321.03 55.8794L320.378 55.4211L319.717 54.9394L314.87 61.2709L315.465 61.7251L316.077 62.1684L316.72 62.5965L317.379 63.0136L318.056 63.4129L318.75 63.8012L319.456 64.1633L320.179 64.5145L320.919 64.8478L321.663 65.1674L322.411 65.4595L323.171 65.7323L323.936 65.9777L324.704 66.2094L325.47 66.4122L326.234 66.593L326.436 72.0961L334.806 72.5582L334.598 66.904L335.247 66.8048L335.871 66.6794L336.477 66.5431L337.058 66.3876L337.621 66.2142L338.165 66.0298L338.692 65.8208L339.193 65.5994L339.676 65.3601L340.14 65.1099L340.58 64.8404L341 64.56L341.395 64.2604L341.778 63.9512L342.135 63.6296L342.467 63.2888L342.787 62.9384L343.081 62.5756L343.355 62.2019L343.603 61.8158L343.833 61.4188L344.043 61.0108L344.233 60.5918L344.398 60.1604L344.542 59.725L344.668 59.2717L344.766 58.8129L344.844 58.35L344.903 57.8761L344.943 57.3913L344.955 56.901Z" fill="#EC7202"/>
<path d="M307.86 88.7L298.74 83.74C287.46 77.61 279.97 65.05 280 49.58C280.04 25.57 298.18 3.5 320.42 0.370003L329.54 5.33C307.29 8.46 289.16 30.53 289.12 54.54C289.09 70.01 296.58 82.57 307.86 88.7Z" fill="black"/>
</g>
<path d="M3.91098 462.41L137.335 408.339C138.521 407.856 139.857 407.89 141.023 408.434L268.319 467.931C271.986 469.644 271.851 474.92 268.096 476.443L141.273 527.835C135.878 530.024 129.811 529.861 124.538 527.4L3.68729 470.915C0.0202259 469.202 0.155792 463.926 3.91098 462.403V462.41Z" fill="#7DAD0A" stroke="black" stroke-width="2" stroke-linejoin="round"/>
<path d="M3.91098 455.018L137.335 400.947C138.521 400.465 139.857 400.499 141.023 401.043L268.319 460.539C271.986 462.252 271.851 467.528 268.096 469.051L141.273 520.444C135.878 522.633 129.811 522.47 124.538 520.008L3.68729 463.524C0.0202259 461.811 0.155792 456.535 3.91098 455.012V455.018Z" fill="#A4D827" stroke="black" stroke-width="2" stroke-linejoin="round"/>
<path d="M137.159 334.795L211.693 369.632L134.217 401.036L59.6829 366.192L137.159 334.795Z" fill="#C79F31" stroke="black" stroke-width="2" stroke-linejoin="round"/>
<path d="M211.693 369.632L210.012 466.441L132.529 497.838L134.217 401.036L211.693 369.632Z" fill="#FFC32E" stroke="black" stroke-width="2" stroke-linejoin="round"/>
<path d="M134.217 401.036L132.529 497.838L57.9951 463L59.6829 366.192L134.217 401.036Z" fill="#FFAB31" stroke="black" stroke-width="2" stroke-linejoin="round"/>
<path d="M137.701 310.02L223.779 350.255L134.305 386.513L48.2207 346.278L137.701 310.02Z" fill="#FFE299" stroke="black" stroke-width="2" stroke-linejoin="round"/>
<path d="M73.1038 346.931L137.416 320.871L198.896 349.603L134.583 375.669L73.1038 346.931Z" fill="black" stroke="black" stroke-width="2" stroke-linejoin="round"/>
<path d="M223.779 350.255L223.155 386.106L133.682 422.371L134.305 386.513L223.779 350.255Z" fill="#FFC32E" stroke="black" stroke-width="2" stroke-linejoin="round"/>
<path d="M134.305 386.513L133.682 422.37L47.5972 382.135L48.2208 346.278L134.305 386.513Z" fill="#FFAB31" stroke="black" stroke-width="2" stroke-linejoin="round"/>
<path d="M210.134 459.438L169.79 475.204" stroke="black" stroke-width="2" stroke-linecap="round" stroke-linejoin="round"/>
<path d="M210.249 452.537L186.871 461.607" stroke="black" stroke-width="2" stroke-linecap="round" stroke-linejoin="round"/>
<path d="M33.9186 457.079C34.8133 457.079 35.5386 456.351 35.5386 455.454C35.5386 454.556 34.8133 453.829 33.9186 453.829C33.0239 453.829 32.2986 454.556 32.2986 455.454C32.2986 456.351 33.0239 457.079 33.9186 457.079Z" fill="black"/>
<path d="M39.2465 462.966C40.2048 462.966 40.9817 462.187 40.9817 461.226C40.9817 460.265 40.2048 459.485 39.2465 459.485C38.2881 459.485 37.5112 460.265 37.5112 461.226C37.5112 462.187 38.2881 462.966 39.2465 462.966Z" fill="black"/>
<path d="M244.555 469.058C245.513 469.058 246.29 468.279 246.29 467.318C246.29 466.356 245.513 465.577 244.555 465.577C243.596 465.577 242.819 466.356 242.819 467.318C242.819 468.279 243.596 469.058 244.555 469.058Z" fill="black"/>
<path d="M253.177 462.966C254.135 462.966 254.912 462.187 254.912 461.226C254.912 460.265 254.135 459.485 253.177 459.485C252.218 459.485 251.441 460.265 251.441 461.226C251.441 462.187 252.218 462.966 253.177 462.966Z" fill="black"/>
<g clip-path="url(#clip3_815_243)">
<path d="M120.29 359.07L111.17 354.11C116.98 357.27 123.87 358.61 131.26 357.57L140.38 362.53C133 363.57 126.1 362.23 120.29 359.07Z" fill="black"/>
<path d="M151.51 279.72L160.63 284.68C171.16 290.41 178.16 302.13 178.13 316.58C178.09 339 161.15 359.62 140.38 362.54L131.26 357.58C152.03 354.66 168.97 334.04 169.01 311.62C169.04 297.18 162.04 285.45 151.51 279.72Z" fill="black"/>
<path d="M109.6 353.19C112.64 354.84 115.68 356.5 118.72 358.15C119.24 358.47 119.77 358.78 120.3 359.07L111.18 354.11C110.64 353.82 110.11 353.51 109.6 353.19Z" fill="#FFC627"/>
<path d="M131.42 276.26C138.81 275.22 145.7 276.56 151.52 279.72L160.64 284.68C154.83 281.52 147.93 280.18 140.54 281.22C137.8 279.73 134.16 277.75 131.42 276.26Z" fill="#FFC627"/>
<path d="M152.94 277.08L162.06 282.04C155.83 278.65 148.45 277.22 140.54 278.33L131.42 273.37C139.33 272.26 146.71 273.69 152.94 277.08Z" fill="black"/>
<path d="M93.68 322.21C93.72 299.79 110.65 279.18 131.42 276.26L140.54 281.22C119.76 284.14 102.83 304.75 102.79 327.16C102.76 340.87 109.06 352.13 118.71 358.14C115.67 356.49 112.63 354.83 109.59 353.18C99.94 347.17 93.65 335.91 93.67 322.2L93.68 322.21Z" fill="#FFC627"/>
<path d="M140.54 278.33C162.78 275.2 180.84 292.19 180.8 316.2C180.76 340.21 162.62 362.28 140.38 365.41C118.14 368.54 100.07 351.55 100.12 327.54C100.16 303.53 118.3 281.46 140.54 278.33ZM140.38 362.53C161.15 359.61 178.09 338.99 178.13 316.57C178.17 294.15 161.3 278.29 140.53 281.21C119.76 284.13 102.83 304.75 102.79 327.16C102.75 349.58 119.61 365.45 140.38 362.53Z" fill="black"/>
<path d="M140.53 281.22C161.3 278.3 178.17 294.16 178.13 316.58C178.09 339 161.15 359.62 140.38 362.54C119.61 365.46 102.75 349.59 102.79 327.17C102.83 304.75 119.76 284.14 140.53 281.22Z" fill="#FFC627"/>
<path d="M155.955 330.901L155.948 330.4L155.91 329.8L155.841 329.215L155.746 328.653L155.625 328.115L155.472 327.591L155.293 327.092L155.09 326.608L154.868 326.143L154.622 325.694L154.351 325.261L154.063 324.847L153.756 324.45L153.433 324.064L153.086 323.695L152.727 323.345L152.359 323.007L151.967 322.679L151.573 322.365L151.162 322.062L150.74 321.778L150.31 321.499L149.87 321.233L149.423 320.972L148.972 320.725L148.519 320.492L148.057 320.265L147.594 320.044L147.13 319.83L146.663 319.629L146.202 319.431L145.734 319.237L145.278 319.053L144.9 318.907L144.528 318.768L144.164 318.624L143.798 318.487L143.44 318.351L143.088 318.217L142.738 318.076L142.4 317.944L142.062 317.812L141.732 317.675L141.416 317.541L141.107 317.408L140.805 317.276L140.511 317.139L140.232 316.998L139.96 316.858L139.702 316.721L139.453 316.571L139.218 316.424L138.997 316.28L138.792 316.125L138.603 315.966L138.42 315.808L138.261 315.64L138.115 315.476L137.979 315.299L137.872 315.12L137.774 314.929L137.697 314.743L137.643 314.546L137.606 314.339L137.584 314.127L137.591 313.807L137.63 313.501L137.703 313.209L137.813 312.945L137.954 312.702L138.128 312.472L138.34 312.271L138.59 312.093L138.871 311.935L139.191 311.799L139.541 311.69L139.93 311.603L140.357 311.538L140.813 311.508L141.308 311.492L141.833 311.511L142.332 311.554L142.832 311.625L143.328 311.716L143.832 311.838L144.337 311.989L144.84 312.154L145.351 312.348L145.856 312.571L146.366 312.808L146.879 313.067L147.394 313.348L147.906 313.643L148.421 313.96L148.941 314.292L149.463 314.646L149.982 315.014L154.803 308.92L154.287 308.539L153.748 308.16L153.194 307.786L152.619 307.414L152.027 307.053L151.419 306.696L150.787 306.356L150.14 306.02L149.475 305.702L148.786 305.4L148.078 305.116L147.352 304.857L146.602 304.607L145.838 304.391L145.049 304.191L144.24 304.022L144.045 298.735L135.675 298.273L135.885 303.991L135.361 304.108L134.849 304.242L134.349 304.385L133.869 304.539L133.398 304.717L132.946 304.905L132.507 305.103L132.085 305.319L131.676 305.544L131.285 305.788L130.906 306.041L130.545 306.311L130.198 306.585L129.867 306.883L129.557 307.185L129.259 307.497L128.986 307.829L128.725 308.169L128.483 308.521L128.254 308.882L128.051 309.256L127.86 309.639L127.689 310.034L127.537 310.439L127.404 310.855L127.29 311.282L127.196 311.72L127.127 312.171L127.072 312.624L127.037 313.088L127.021 313.564L127.032 314.044L127.065 314.594L127.132 315.121L127.228 315.64L127.349 316.143L127.502 316.63L127.673 317.1L127.875 317.554L128.093 317.998L128.342 318.433L128.603 318.842L128.893 319.25L129.194 319.638L129.519 320.017L129.853 320.384L130.211 320.734L130.578 321.078L130.963 321.405L131.356 321.726L131.76 322.028L132.172 322.324L132.601 322.61L133.031 322.888L133.464 323.153L133.913 323.407L134.357 323.652L134.809 323.893L135.263 324.119L135.713 324.337L136.17 324.55L136.622 324.754L137.068 324.95L137.518 325.133L137.886 325.292L138.255 325.444L138.625 325.596L138.996 325.741L139.358 325.892L139.714 326.042L140.065 326.183L140.413 326.331L140.756 326.478L141.091 326.623L141.418 326.774L141.738 326.924L142.044 327.07L142.35 327.217L142.642 327.368L142.918 327.523L143.187 327.677L143.441 327.835L143.687 327.998L143.919 328.158L144.135 328.33L144.337 328.499L144.524 328.672L144.689 328.847L144.846 329.029L144.98 329.213L145.1 329.401L145.203 329.6L145.284 329.802L145.343 330.006L145.379 330.22L145.4 330.439L145.401 330.611L145.396 330.781L145.385 330.943L145.36 331.102L145.322 331.259L145.285 331.409L145.228 331.554L145.171 331.693L145.101 331.829L145.019 331.955L144.93 332.08L144.827 332.203L144.72 332.31L144.605 332.422L144.478 332.519L144.337 332.619L144.191 332.704L144.032 332.787L143.859 332.867L143.681 332.938L143.49 333L143.292 333.061L143.082 333.111L142.859 333.153L142.63 333.193L142.388 333.223L142.134 333.244L141.866 333.262L141.593 333.272L141.301 333.27L141.009 333.262L140.698 333.25L140.1 333.202L139.495 333.125L138.896 333.012L138.287 332.877L137.679 332.705L137.069 332.505L136.457 332.276L135.836 332.024L135.216 331.736L134.593 331.419L133.961 331.079L133.321 330.708L132.679 330.309L132.03 329.879L131.378 329.421L130.717 328.939L125.87 335.271L126.465 335.725L127.077 336.168L127.72 336.597L128.379 337.014L129.056 337.413L129.75 337.801L130.456 338.163L131.179 338.515L131.919 338.848L132.663 339.167L133.411 339.459L134.171 339.732L134.936 339.978L135.704 340.209L136.47 340.412L137.234 340.593L137.436 346.096L145.806 346.558L145.598 340.904L146.247 340.805L146.871 340.679L147.477 340.543L148.058 340.388L148.621 340.214L149.165 340.03L149.692 339.821L150.193 339.599L150.676 339.36L151.14 339.11L151.58 338.84L152 338.56L152.395 338.26L152.778 337.951L153.135 337.63L153.467 337.289L153.787 336.938L154.081 336.576L154.355 336.202L154.603 335.816L154.833 335.419L155.043 335.011L155.233 334.592L155.398 334.16L155.542 333.725L155.668 333.272L155.766 332.813L155.844 332.35L155.903 331.876L155.943 331.391L155.955 330.901Z" fill="#EC7202"/>
<path d="M118.86 361.7L109.74 356.74C98.4601 350.61 90.9701 338.05 91.0001 322.58C91.0401 298.57 109.18 276.5 131.42 273.37L140.54 278.33C118.29 281.46 100.16 303.53 100.12 327.54C100.09 343.01 107.58 355.57 118.86 361.7Z" fill="black"/>
</g>
<path d="M378.911 462.018L512.335 407.947C513.521 407.465 514.857 407.499 516.023 408.043L643.319 467.539C646.986 469.252 646.851 474.528 643.096 476.051L516.273 527.444C510.878 529.633 504.811 529.47 499.538 527.008L378.687 470.524C375.02 468.811 375.156 463.535 378.911 462.012V462.018Z" fill="#7DAD0A" stroke="black" stroke-width="2" stroke-linejoin="round"/>
<path d="M378.911 455.018L512.335 400.947C513.521 400.465 514.857 400.499 516.023 401.043L643.319 460.539C646.986 462.252 646.851 467.528 643.096 469.051L516.273 520.444C510.878 522.633 504.811 522.47 499.538 520.008L378.687 463.524C375.02 461.811 375.156 456.535 378.911 455.012V455.018Z" fill="#A4D827" stroke="black" stroke-width="2" stroke-linejoin="round"/>
<path d="M512.159 334.795L586.693 369.632L509.217 401.036L434.683 366.192L512.159 334.795Z" fill="#C79F31" stroke="black" stroke-width="2" stroke-linejoin="round"/>
<path d="M586.693 369.632L585.012 466.441L507.529 497.838L509.217 401.036L586.693 369.632Z" fill="#FFC32E" stroke="black" stroke-width="2" stroke-linejoin="round"/>
<path d="M509.217 401.036L507.529 497.838L432.995 463L434.683 366.192L509.217 401.036Z" fill="#FFAB31" stroke="black" stroke-width="2" stroke-linejoin="round"/>
<path d="M512.701 310.02L598.779 350.255L509.305 386.513L423.221 346.278L512.701 310.02Z" fill="#FFE299" stroke="black" stroke-width="2" stroke-linejoin="round"/>
<path d="M448.104 346.931L512.416 320.871L573.896 349.603L509.583 375.669L448.104 346.931Z" fill="black" stroke="black" stroke-width="2" stroke-linejoin="round"/>
<path d="M598.779 350.255L598.155 386.106L508.682 422.371L509.305 386.513L598.779 350.255Z" fill="#FFC32E" stroke="black" stroke-width="2" stroke-linejoin="round"/>
<path d="M509.305 386.513L508.682 422.37L422.597 382.135L423.221 346.278L509.305 386.513Z" fill="#FFAB31" stroke="black" stroke-width="2" stroke-linejoin="round"/>
<path d="M585.134 459.438L544.79 475.204" stroke="black" stroke-width="2" stroke-linecap="round" stroke-linejoin="round"/>
<path d="M585.249 452.537L561.871 461.607" stroke="black" stroke-width="2" stroke-linecap="round" stroke-linejoin="round"/>
<path d="M408.919 457.079C409.813 457.079 410.539 456.351 410.539 455.454C410.539 454.556 409.813 453.829 408.919 453.829C408.024 453.829 407.299 454.556 407.299 455.454C407.299 456.351 408.024 457.079 408.919 457.079Z" fill="black"/>
<path d="M414.246 462.966C415.205 462.966 415.982 462.187 415.982 461.226C415.982 460.265 415.205 459.485 414.246 459.485C413.288 459.485 412.511 460.265 412.511 461.226C412.511 462.187 413.288 462.966 414.246 462.966Z" fill="black"/>
<path d="M619.555 469.058C620.513 469.058 621.29 468.279 621.29 467.318C621.29 466.356 620.513 465.577 619.555 465.577C618.596 465.577 617.819 466.356 617.819 467.318C617.819 468.279 618.596 469.058 619.555 469.058Z" fill="black"/>
<path d="M628.177 462.966C629.135 462.966 629.912 462.187 629.912 461.226C629.912 460.265 629.135 459.485 628.177 459.485C627.218 459.485 626.441 460.265 626.441 461.226C626.441 462.187 627.218 462.966 628.177 462.966Z" fill="black"/>
<defs>
<clipPath id="clip0_815_243">
<rect width="272" height="214" fill="white" transform="translate(187 52)"/>
</clipPath>
<clipPath id="clip1_815_243">
<rect width="89.8" height="92.78" fill="white" transform="translate(468 177)"/>
</clipPath>
<clipPath id="clip2_815_243">
<rect width="89.8" height="92.78" fill="white" transform="translate(280)"/>
</clipPath>
<clipPath id="clip3_815_243">
<rect width="89.8" height="92.78" fill="white" transform="translate(91 273)"/>
</clipPath>
</defs>
</svg>
