<svg width="29" height="28" viewBox="0 0 29 28" fill="none" xmlns="http://www.w3.org/2000/svg">
<path d="M21.1715 18.3031C20.7221 18.4444 20.2343 18.5599 19.7464 18.6369L15.5996 19.2789L9.48849 20.2161C8.65399 20.3444 7.92221 19.6255 8.05059 18.7782L8.98781 12.6671L9.62973 8.52026C9.70676 8.01956 9.82232 7.54454 9.96354 7.0952C10.4 5.72149 11.1447 4.55319 12.0819 3.61599C12.1204 3.57747 12.1589 3.53896 12.2103 3.50045C13.4042 2.35783 14.8935 1.57469 16.4854 1.21521C19.2585 0.598966 22.3398 1.27939 24.6635 3.60315C26.9873 5.9269 27.6677 9.00812 27.0515 11.7812C26.692 13.3732 25.9089 14.8624 24.7662 16.0564C23.8034 17.0578 22.5965 17.841 21.1715 18.3031Z" fill="#FF8692" stroke="black" stroke-width="2" stroke-miterlimit="10"/>
<path d="M4.98218 23.2202L8.25596 19.9464" stroke="black" stroke-width="2" stroke-miterlimit="10"/>
<path d="M5.62065 20.4356L7.7631 22.5781C8.07176 22.8868 8.07175 23.377 7.76309 23.6856L5.87483 25.5739C4.9761 26.4726 3.52362 26.4726 2.62488 25.5739C1.72614 24.6752 1.72614 23.2226 2.62487 22.3239L4.51313 20.4357C4.82178 20.127 5.31199 20.127 5.62065 20.4356Z" fill="#FF8692" stroke="black" stroke-width="2" stroke-miterlimit="10"/>
</svg>
