<svg width="30" height="30" viewBox="0 0 30 30" fill="none" xmlns="http://www.w3.org/2000/svg">
<path d="M22.2471 20.099C21.7449 20.2593 21.2213 20.3875 20.6657 20.473L16.0818 21.1782L9.33951 22.2147C8.4099 22.3536 7.61919 21.5629 7.7581 20.6333L8.79456 13.891L9.49978 9.30707C9.58526 8.75144 9.71348 8.22787 9.87376 7.72567C10.3653 6.21908 11.1773 4.92618 12.2138 3.88973C12.2565 3.84699 12.2992 3.80425 12.3527 3.76151C13.6669 2.50067 15.3124 1.63517 17.0648 1.23983C20.1314 0.55598 23.5293 1.30394 26.0937 3.87904C28.6581 6.45415 29.4168 9.85201 28.7329 12.9079C28.3376 14.6603 27.4721 16.3058 26.2112 17.6201C25.1534 18.7206 24.0814 19.4871 22.5 20L22.2471 20.099Z" fill="#0AB5FF" stroke="black" stroke-width="2" stroke-miterlimit="10"/>
<path d="M4.37061 25.527L7.99287 21.9048" stroke="black" stroke-width="2" stroke-miterlimit="10"/>
<path d="M5.09225 22.4406L7.45712 24.8055C7.79711 25.1455 7.79711 25.6894 7.45712 26.0294L5.3718 28.1148C4.38203 29.1045 2.78027 29.1045 1.7905 28.1148C0.800736 27.125 0.800716 25.5232 1.79048 24.5334L3.8758 22.4481C4.2158 22.1081 4.75981 22.1081 5.09981 22.4481L5.09225 22.4406Z" fill="#0AB5FF" stroke="black" stroke-width="2" stroke-miterlimit="10"/>
</svg>
