<svg width="151" height="45" viewBox="0 0 151 45" fill="none" xmlns="http://www.w3.org/2000/svg">
<path d="M86.9848 33.8169C87.2463 32.8874 87.3889 31.9101 87.3889 30.8988C87.3889 25.9676 84.067 21.8025 79.5063 20.449C79.5235 20.1824 79.5345 19.9157 79.5345 19.6459C79.5345 11.8521 71.9338 5.53508 62.5587 5.53508C58.7967 5.53508 55.3213 6.55246 52.5069 8.27431C50.4709 3.97817 46.0464 1 40.9141 1C33.8522 1 28.1262 6.63571 28.1262 13.5863C28.1262 14.3678 28.203 15.1309 28.3408 15.8739C27.5326 15.7059 26.6932 15.6149 25.8333 15.6149C19.188 15.6149 13.8004 20.9177 13.8004 27.4582C13.8004 30.6584 15.0925 33.5595 17.188 35.6913C7.05641 36.5654 1 37.6737 1 38.8792C1 41.7078 34.3549 44 75.5 44C116.645 44 150 41.7078 150 38.8792C150 36.3203 122.678 34.1992 86.9864 33.8184L86.9848 33.8169Z" fill="white" stroke="black" stroke-width="2" stroke-miterlimit="10"/>
</svg>
