<svg width="357" height="141" viewBox="0 0 357 141" fill="none" xmlns="http://www.w3.org/2000/svg">
<g filter="url(#filter0_d_502_1318)">
<path d="M71.1313 60.3961C59.0315 60.3961 49.1943 70.2333 49.1943 82.3331C49.1943 94.4329 59.0315 104.27 71.1313 104.27C83.2312 104.27 93.0683 94.4329 93.0683 82.3331C93.0683 70.2333 83.2312 60.3961 71.1313 60.3961ZM71.1313 93.1184C65.1838 93.1184 60.346 88.2807 60.346 82.3331C60.346 76.3856 65.1838 71.5478 71.1313 71.5478C77.0789 71.5478 81.9167 76.3856 81.9167 82.3331C81.9167 88.2807 77.0789 93.1184 71.1313 93.1184Z" fill="white"/>
<path d="M71.1313 60.3961C59.0315 60.3961 49.1943 70.2333 49.1943 82.3331C49.1943 94.4329 59.0315 104.27 71.1313 104.27C83.2312 104.27 93.0683 94.4329 93.0683 82.3331C93.0683 70.2333 83.2312 60.3961 71.1313 60.3961ZM71.1313 93.1184C65.1838 93.1184 60.346 88.2807 60.346 82.3331C60.346 76.3856 65.1838 71.5478 71.1313 71.5478C77.0789 71.5478 81.9167 76.3856 81.9167 82.3331C81.9167 88.2807 77.0789 93.1184 71.1313 93.1184Z" stroke="black" stroke-width="2" stroke-miterlimit="10"/>
</g>
<g filter="url(#filter1_d_502_1318)">
<path d="M42.4821 60.0621H36.1143C34.7998 60.0621 33.7223 61.1287 33.7223 62.454V63.2513C30.5331 61.4412 26.8589 60.4069 22.937 60.4069C10.8372 60.4069 1 70.244 1 82.3439C1 94.4437 10.8372 104.281 22.937 104.281C26.8589 104.281 30.5331 103.246 33.7223 101.436V112.47C33.7223 118.277 29.0462 123.018 23.2602 123.115C17.3019 123.212 12.421 118.212 12.421 112.254V109.754C12.421 108.44 11.3543 107.362 10.0291 107.362H3.66132C2.34682 107.362 1.26936 108.429 1.26936 109.754V112.136C1.26936 124.095 10.7725 134.083 22.7323 134.256C34.9075 134.439 44.8632 124.591 44.8632 112.459V62.4648C44.8632 61.1503 43.7966 60.0728 42.4713 60.0728L42.4821 60.0621ZM22.937 93.1184C16.9894 93.1184 12.1517 88.2806 12.1517 82.3331C12.1517 76.3855 16.9894 71.5477 22.937 71.5477C28.8846 71.5477 33.7223 76.3855 33.7223 82.3331C33.7223 88.2806 28.8846 93.1184 22.937 93.1184Z" fill="white"/>
<path d="M42.4821 60.0621H36.1143C34.7998 60.0621 33.7223 61.1287 33.7223 62.454V63.2513C30.5331 61.4412 26.8589 60.4069 22.937 60.4069C10.8372 60.4069 1 70.244 1 82.3439C1 94.4437 10.8372 104.281 22.937 104.281C26.8589 104.281 30.5331 103.246 33.7223 101.436V112.47C33.7223 118.277 29.0462 123.018 23.2602 123.115C17.3019 123.212 12.421 118.212 12.421 112.254V109.754C12.421 108.44 11.3543 107.362 10.0291 107.362H3.66132C2.34682 107.362 1.26936 108.429 1.26936 109.754V112.136C1.26936 124.095 10.7725 134.083 22.7323 134.256C34.9075 134.439 44.8632 124.591 44.8632 112.459V62.4648C44.8632 61.1503 43.7966 60.0728 42.4713 60.0728L42.4821 60.0621ZM22.937 93.1184C16.9894 93.1184 12.1517 88.2806 12.1517 82.3331C12.1517 76.3855 16.9894 71.5477 22.937 71.5477C28.8846 71.5477 33.7223 76.3855 33.7223 82.3331C33.7223 88.2806 28.8846 93.1184 22.937 93.1184Z" stroke="black" stroke-width="2" stroke-miterlimit="10"/>
</g>
<g filter="url(#filter2_d_502_1318)">
<path d="M168.555 60.3961C156.455 60.3961 146.618 70.2333 146.618 82.3331C146.618 94.4329 156.455 104.27 168.555 104.27C180.655 104.27 190.492 94.4329 190.492 82.3331C190.492 70.2333 180.655 60.3961 168.555 60.3961ZM168.555 93.1184C162.608 93.1184 157.77 88.2807 157.77 82.3331C157.77 76.3856 162.608 71.5478 168.555 71.5478C174.503 71.5478 179.341 76.3856 179.341 82.3331C179.341 88.2807 174.503 93.1184 168.555 93.1184Z" fill="white"/>
<path d="M168.555 60.3961C156.455 60.3961 146.618 70.2333 146.618 82.3331C146.618 94.4329 156.455 104.27 168.555 104.27C180.655 104.27 190.492 94.4329 190.492 82.3331C190.492 70.2333 180.655 60.3961 168.555 60.3961ZM168.555 93.1184C162.608 93.1184 157.77 88.2807 157.77 82.3331C157.77 76.3856 162.608 71.5478 168.555 71.5478C174.503 71.5478 179.341 76.3856 179.341 82.3331C179.341 88.2807 174.503 93.1184 168.555 93.1184Z" stroke="black" stroke-width="2" stroke-miterlimit="10"/>
</g>
<g filter="url(#filter3_d_502_1318)">
<path d="M138.882 60.0621H132.514C131.2 60.0621 130.122 61.1287 130.122 62.454V63.2513C126.933 61.4412 123.259 60.4069 119.337 60.4069C107.248 60.4069 97.3999 70.244 97.3999 82.3439C97.3999 94.4437 107.237 104.281 119.337 104.281C123.259 104.281 126.933 103.246 130.122 101.436V112.47C130.122 118.428 125.209 123.255 119.229 123.115C113.497 122.986 108.821 117.986 108.821 112.254V109.754C108.821 108.44 107.754 107.362 106.429 107.362H100.061C98.7467 107.362 97.6693 108.429 97.6693 109.754V112.136C97.6693 123.826 106.752 133.695 118.432 134.234C130.92 134.816 141.263 124.828 141.263 112.459V62.4648C141.263 61.1503 140.196 60.0728 138.871 60.0728L138.882 60.0621ZM119.337 93.1184C113.389 93.1184 108.552 88.2806 108.552 82.3331C108.552 76.3855 113.389 71.5477 119.337 71.5477C125.284 71.5477 130.122 76.3855 130.122 82.3331C130.122 88.2806 125.284 93.1184 119.337 93.1184Z" fill="white"/>
<path d="M138.882 60.0621H132.514C131.2 60.0621 130.122 61.1287 130.122 62.454V63.2513C126.933 61.4412 123.259 60.4069 119.337 60.4069C107.248 60.4069 97.3999 70.244 97.3999 82.3439C97.3999 94.4437 107.237 104.281 119.337 104.281C123.259 104.281 126.933 103.246 130.122 101.436V112.47C130.122 118.428 125.209 123.255 119.229 123.115C113.497 122.986 108.821 117.986 108.821 112.254V109.754C108.821 108.44 107.754 107.362 106.429 107.362H100.061C98.7467 107.362 97.6693 108.429 97.6693 109.754V112.136C97.6693 123.826 106.752 133.695 118.432 134.234C130.92 134.816 141.263 124.828 141.263 112.459V62.4648C141.263 61.1503 140.196 60.0728 138.871 60.0728L138.882 60.0621ZM119.337 93.1184C113.389 93.1184 108.552 88.2806 108.552 82.3331C108.552 76.3855 113.389 71.5477 119.337 71.5477C125.284 71.5477 130.122 76.3855 130.122 82.3331C130.122 88.2806 125.284 93.1184 119.337 93.1184Z" stroke="black" stroke-width="2" stroke-miterlimit="10"/>
</g>
<g filter="url(#filter4_d_502_1318)">
<path d="M219.26 60.1483C215.349 60.1483 211.686 61.2042 208.507 63.0359C208.475 61.7214 207.408 60.6655 206.083 60.6655H199.931C198.595 60.6655 197.506 61.7537 197.506 63.0898V130.722C197.506 132.058 198.595 133.146 199.931 133.146H206.083C207.419 133.146 208.507 132.058 208.507 130.722V100.596C211.675 102.417 215.338 103.473 219.249 103.473C231.188 103.473 240.906 93.7542 240.906 81.816C240.906 69.8777 231.188 60.1591 219.249 60.1591L219.26 60.1483ZM219.26 92.4504C213.388 92.4504 208.604 87.6773 208.604 81.7944C208.604 75.9115 213.377 71.1384 219.26 71.1384C225.143 71.1384 229.916 75.9115 229.916 81.7944C229.916 87.6773 225.143 92.4504 219.26 92.4504Z" fill="white"/>
<path d="M219.26 60.1483C215.349 60.1483 211.686 61.2042 208.507 63.0359C208.475 61.7214 207.408 60.6655 206.083 60.6655H199.931C198.595 60.6655 197.506 61.7537 197.506 63.0898V130.722C197.506 132.058 198.595 133.146 199.931 133.146H206.083C207.419 133.146 208.507 132.058 208.507 130.722V100.596C211.675 102.417 215.338 103.473 219.249 103.473C231.188 103.473 240.906 93.7542 240.906 81.816C240.906 69.8777 231.188 60.1591 219.249 60.1591L219.26 60.1483ZM219.26 92.4504C213.388 92.4504 208.604 87.6773 208.604 81.7944C208.604 75.9115 213.377 71.1384 219.26 71.1384C225.143 71.1384 229.916 75.9115 229.916 81.7944C229.916 87.6773 225.143 92.4504 219.26 92.4504Z" stroke="black" stroke-width="2" stroke-miterlimit="10"/>
</g>
<g filter="url(#filter5_d_502_1318)">
<path d="M268.188 60.1483C256.249 60.1483 246.531 69.867 246.531 81.8052C246.531 93.7434 256.249 103.462 268.188 103.462C280.126 103.462 289.844 93.7434 289.844 81.8052C289.844 69.867 280.126 60.1483 268.188 60.1483ZM268.188 92.4504C262.315 92.4504 257.532 87.6773 257.532 81.7944C257.532 75.9115 262.305 71.1384 268.188 71.1384C274.071 71.1384 278.844 75.9115 278.844 81.7944C278.844 87.6773 274.071 92.4504 268.188 92.4504Z" fill="white"/>
<path d="M268.188 60.1483C256.249 60.1483 246.531 69.867 246.531 81.8052C246.531 93.7434 256.249 103.462 268.188 103.462C280.126 103.462 289.844 93.7434 289.844 81.8052C289.844 69.867 280.126 60.1483 268.188 60.1483ZM268.188 92.4504C262.315 92.4504 257.532 87.6773 257.532 81.7944C257.532 75.9115 262.305 71.1384 268.188 71.1384C274.071 71.1384 278.844 75.9115 278.844 81.7944C278.844 87.6773 274.071 92.4504 268.188 92.4504Z" stroke="black" stroke-width="2" stroke-miterlimit="10"/>
</g>
<g filter="url(#filter6_d_502_1318)">
<path d="M317.115 60.1483C305.177 60.1483 295.458 69.867 295.458 81.8052C295.458 93.7434 305.177 103.462 317.115 103.462C329.053 103.462 338.772 93.7434 338.772 81.8052C338.772 69.867 329.053 60.1483 317.115 60.1483ZM317.115 92.4504C311.243 92.4504 306.459 87.6773 306.459 81.7944C306.459 75.9115 311.232 71.1384 317.115 71.1384C322.998 71.1384 327.771 75.9115 327.771 81.7944C327.771 87.6773 322.998 92.4504 317.115 92.4504Z" fill="white"/>
<path d="M317.115 60.1483C305.177 60.1483 295.458 69.867 295.458 81.8052C295.458 93.7434 305.177 103.462 317.115 103.462C329.053 103.462 338.772 93.7434 338.772 81.8052C338.772 69.867 329.053 60.1483 317.115 60.1483ZM317.115 92.4504C311.243 92.4504 306.459 87.6773 306.459 81.7944C306.459 75.9115 311.232 71.1384 317.115 71.1384C322.998 71.1384 327.771 75.9115 327.771 81.7944C327.771 87.6773 322.998 92.4504 317.115 92.4504Z" stroke="black" stroke-width="2" stroke-miterlimit="10"/>
</g>
<g filter="url(#filter7_d_502_1318)">
<path d="M353.576 37.3708H347.424C346.085 37.3708 344.999 38.4562 344.999 39.7951V101.135C344.999 102.474 346.085 103.559 347.424 103.559H353.576C354.915 103.559 356 102.474 356 101.135V39.7951C356 38.4562 354.915 37.3708 353.576 37.3708Z" fill="white"/>
<path d="M353.576 37.3708H347.424C346.085 37.3708 344.999 38.4562 344.999 39.7951V101.135C344.999 102.474 346.085 103.559 347.424 103.559H353.576C354.915 103.559 356 102.474 356 101.135V39.7951C356 38.4562 354.915 37.3708 353.576 37.3708Z" stroke="black" stroke-width="2" stroke-miterlimit="10"/>
</g>
<path d="M200.254 54.9441C198.832 55.4075 197.345 55.763 195.793 56L182.853 57.9933L163.804 60.924C161.186 61.3227 158.934 59.0708 159.332 56.4526L162.263 37.4139L164.256 24.4737C164.493 22.9222 164.849 21.4353 165.312 20.013C166.691 15.7463 168.997 12.0937 171.928 9.16305C172.057 9.03376 172.176 8.91524 172.316 8.79672C176.022 5.23034 180.677 2.78452 185.633 1.67474C194.285 -0.253909 203.874 1.86868 211.136 9.11996C218.388 16.3712 220.521 25.9714 218.592 34.6233C217.483 39.5796 215.037 44.2342 211.47 47.9407C208.486 51.0545 204.704 53.5004 200.254 54.9334V54.9441Z" fill="#FF8692" stroke="black" stroke-width="2" stroke-miterlimit="10"/>
<path d="M211.46 47.9407L172.305 8.78592C176.011 5.21955 180.666 2.77372 185.622 1.66394L218.582 34.6233C217.472 39.5796 215.026 44.2342 211.46 47.9407Z" fill="#FBE64D" stroke="black" stroke-width="2" stroke-miterlimit="10"/>
<path d="M200.254 54.9441C198.832 55.4074 197.345 55.763 195.793 56L182.853 57.9933L162.274 37.4139L164.267 24.4737C164.504 22.9221 164.86 21.4352 165.323 20.013L200.254 54.9441Z" fill="#FBE64D" stroke="black" stroke-width="2" stroke-miterlimit="10"/>
<path d="M176.172 54.6209L170.904 49.3521C170.483 48.9319 169.805 48.9319 169.384 49.3521C168.964 49.7724 168.964 50.4511 169.384 50.8714L173.166 54.6532C172.218 54.8148 171.238 54.5024 170.559 53.8128L167.283 50.5373C166.863 50.1171 166.184 50.1171 165.764 50.5373C165.344 50.9576 165.344 51.6364 165.764 52.0566L167.639 53.9313C168.221 54.5132 167.898 55.526 167.089 55.6553C166.766 55.7091 166.432 55.6014 166.206 55.3751L165.549 54.7179C165.129 54.2977 164.45 54.2977 164.03 54.7179C163.609 55.1381 163.609 55.8169 164.03 56.2371L165.452 57.6593C165.7 57.9071 166.044 58.0149 166.389 57.961L175.612 56.4418C176.011 56.3772 176.334 56.097 176.463 55.7091C176.593 55.3213 176.485 54.901 176.205 54.6209H176.172Z" fill="black"/>
<path d="M193.53 51.5502L183.046 41.0666C182.626 40.6464 181.947 40.6464 181.527 41.0666C181.107 41.4868 181.107 42.1656 181.527 42.5858L190.535 51.5933L189.059 51.8411C188.735 51.895 188.401 51.7873 188.175 51.561L184.9 48.2855C184.479 47.8653 183.801 47.8653 183.38 48.2855C182.96 48.7057 182.96 49.3845 183.38 49.8047L185.934 52.3583L184.458 52.6061C184.135 52.66 183.801 52.5522 183.574 52.326L179.426 48.1778C179.006 47.7576 178.327 47.7576 177.907 48.1778C177.487 48.598 177.487 49.2768 177.907 49.697L182.454 54.2438C182.928 54.7179 183.607 54.9442 184.275 54.8257L192.981 53.3927C193.379 53.328 193.702 53.0479 193.832 52.66C193.961 52.2721 193.853 51.8519 193.562 51.5718L193.53 51.5502Z" fill="black"/>
<path d="M202.365 24.7755L211.739 34.1493C212.213 34.6234 212.386 35.3238 212.203 35.9702C212.127 36.2181 212.052 36.4659 211.976 36.7137L205.738 30.4752C205.318 30.055 204.639 30.055 204.219 30.4752C203.798 30.8954 203.798 31.5742 204.219 31.9944L210.554 38.3299C210.877 38.6531 210.953 39.138 210.726 39.5366C210.576 39.806 210.403 40.0753 210.231 40.3447L200.243 30.3567C199.823 29.9365 199.144 29.9365 198.724 30.3567C198.303 30.7769 198.303 31.4557 198.724 31.8759L209.606 42.7582C209.821 42.9737 210.134 43.0922 210.446 43.0707C210.759 43.0491 211.039 42.8983 211.233 42.6397L211.47 42.3272C213.151 40.0753 214.271 37.4248 214.702 34.645C214.756 34.311 214.638 33.9769 214.401 33.7399L203.917 23.2563C203.497 22.836 202.818 22.836 202.398 23.2563C201.978 23.6765 201.978 24.3553 202.398 24.7755H202.365Z" fill="black"/>
<path d="M206.783 47.6067C206.826 47.2727 206.708 46.9495 206.471 46.7124L193.757 33.9984C193.336 33.5782 192.658 33.5782 192.237 33.9984C191.817 34.4187 191.817 35.0974 192.237 35.5177L203.982 47.2619L203.368 47.639L200.264 44.536C199.844 44.1158 199.165 44.1158 198.745 44.536C198.325 44.9562 198.325 45.635 198.745 46.0552L201.471 48.7811L200.857 49.1582L192.895 41.1958C192.474 40.7756 191.796 40.7756 191.375 41.1958C190.955 41.6161 190.955 42.2949 191.375 42.7151L199.941 51.2808C200.286 51.6256 200.836 51.701 201.256 51.4425L206.298 48.404C206.578 48.2316 206.772 47.9407 206.815 47.6067H206.783Z" fill="black"/>
<path d="M209.531 19.0541C209.11 18.6339 208.432 18.6339 208.011 19.0541C207.591 19.4743 207.591 20.1531 208.011 20.5733L215.338 27.9C215.608 28.1694 216.006 28.2771 216.373 28.1802C216.739 28.0832 217.03 27.8031 217.137 27.426C217.181 27.2751 217.612 25.6913 217.849 23.5471C218.204 23.1808 218.226 22.6313 217.956 22.2218C218.129 19.2373 217.795 15.5955 215.704 13.0312C215.327 12.5571 214.649 12.5032 214.185 12.8695C213.722 13.2466 213.657 13.9254 214.024 14.3887C214.595 15.0891 214.993 15.908 215.274 16.7807C215.597 17.7827 214.315 18.5262 213.571 17.7827L212.548 16.7591C212.127 16.3389 211.449 16.3389 211.028 16.7591C210.608 17.1794 210.608 17.8581 211.028 18.2784L215.381 22.6313C215.597 22.8468 215.715 23.1592 215.672 23.4717C215.608 24.0212 215.532 24.5276 215.457 24.9694L209.531 19.0434V19.0541Z" fill="black"/>
<path d="M146.455 66.9312L153.136 73.6128C154.089 74.5652 154.089 76.1042 153.136 77.0565L147.255 82.9382C144.458 85.7343 139.918 85.7343 137.122 82.9382C134.325 80.1421 134.325 75.6013 137.122 72.8052L143.003 66.9236C143.956 65.9712 145.495 65.9712 146.447 66.9236L146.455 66.9312Z" fill="#FF8692" stroke="black" stroke-width="2" stroke-miterlimit="10"/>
<path d="M149.786 70.2764L159.989 60.0621" stroke="black" stroke-width="2" stroke-miterlimit="10"/>
<path d="M150.487 79.7041L146.683 75.9006" stroke="black" stroke-width="2" stroke-miterlimit="10" stroke-linecap="round"/>
<path d="M146.198 82.6133L140.822 77.2368" stroke="black" stroke-width="2" stroke-miterlimit="10" stroke-linecap="round"/>
<defs>
<filter id="filter0_d_502_1318" x="48.1943" y="59.3961" width="45.874" height="50.874" filterUnits="userSpaceOnUse" color-interpolation-filters="sRGB">
<feFlood flood-opacity="0" result="BackgroundImageFix"/>
<feColorMatrix in="SourceAlpha" type="matrix" values="0 0 0 0 0 0 0 0 0 0 0 0 0 0 0 0 0 0 127 0" result="hardAlpha"/>
<feOffset dy="5"/>
<feComposite in2="hardAlpha" operator="out"/>
<feColorMatrix type="matrix" values="0 0 0 0 0 0 0 0 0 0 0 0 0 0 0 0 0 0 1 0"/>
<feBlend mode="normal" in2="BackgroundImageFix" result="effect1_dropShadow_502_1318"/>
<feBlend mode="normal" in="SourceGraphic" in2="effect1_dropShadow_502_1318" result="shape"/>
</filter>
<filter id="filter1_d_502_1318" x="0" y="59.0621" width="45.8633" height="81.1961" filterUnits="userSpaceOnUse" color-interpolation-filters="sRGB">
<feFlood flood-opacity="0" result="BackgroundImageFix"/>
<feColorMatrix in="SourceAlpha" type="matrix" values="0 0 0 0 0 0 0 0 0 0 0 0 0 0 0 0 0 0 127 0" result="hardAlpha"/>
<feOffset dy="5"/>
<feComposite in2="hardAlpha" operator="out"/>
<feColorMatrix type="matrix" values="0 0 0 0 0 0 0 0 0 0 0 0 0 0 0 0 0 0 1 0"/>
<feBlend mode="normal" in2="BackgroundImageFix" result="effect1_dropShadow_502_1318"/>
<feBlend mode="normal" in="SourceGraphic" in2="effect1_dropShadow_502_1318" result="shape"/>
</filter>
<filter id="filter2_d_502_1318" x="145.618" y="59.3961" width="45.874" height="50.874" filterUnits="userSpaceOnUse" color-interpolation-filters="sRGB">
<feFlood flood-opacity="0" result="BackgroundImageFix"/>
<feColorMatrix in="SourceAlpha" type="matrix" values="0 0 0 0 0 0 0 0 0 0 0 0 0 0 0 0 0 0 127 0" result="hardAlpha"/>
<feOffset dy="5"/>
<feComposite in2="hardAlpha" operator="out"/>
<feColorMatrix type="matrix" values="0 0 0 0 0 0 0 0 0 0 0 0 0 0 0 0 0 0 1 0"/>
<feBlend mode="normal" in2="BackgroundImageFix" result="effect1_dropShadow_502_1318"/>
<feBlend mode="normal" in="SourceGraphic" in2="effect1_dropShadow_502_1318" result="shape"/>
</filter>
<filter id="filter3_d_502_1318" x="96.3999" y="59.0621" width="45.8633" height="81.1963" filterUnits="userSpaceOnUse" color-interpolation-filters="sRGB">
<feFlood flood-opacity="0" result="BackgroundImageFix"/>
<feColorMatrix in="SourceAlpha" type="matrix" values="0 0 0 0 0 0 0 0 0 0 0 0 0 0 0 0 0 0 127 0" result="hardAlpha"/>
<feOffset dy="5"/>
<feComposite in2="hardAlpha" operator="out"/>
<feColorMatrix type="matrix" values="0 0 0 0 0 0 0 0 0 0 0 0 0 0 0 0 0 0 1 0"/>
<feBlend mode="normal" in2="BackgroundImageFix" result="effect1_dropShadow_502_1318"/>
<feBlend mode="normal" in="SourceGraphic" in2="effect1_dropShadow_502_1318" result="shape"/>
</filter>
<filter id="filter4_d_502_1318" x="196.506" y="59.1483" width="45.3999" height="79.9976" filterUnits="userSpaceOnUse" color-interpolation-filters="sRGB">
<feFlood flood-opacity="0" result="BackgroundImageFix"/>
<feColorMatrix in="SourceAlpha" type="matrix" values="0 0 0 0 0 0 0 0 0 0 0 0 0 0 0 0 0 0 127 0" result="hardAlpha"/>
<feOffset dy="5"/>
<feComposite in2="hardAlpha" operator="out"/>
<feColorMatrix type="matrix" values="0 0 0 0 0 0 0 0 0 0 0 0 0 0 0 0 0 0 1 0"/>
<feBlend mode="normal" in2="BackgroundImageFix" result="effect1_dropShadow_502_1318"/>
<feBlend mode="normal" in="SourceGraphic" in2="effect1_dropShadow_502_1318" result="shape"/>
</filter>
<filter id="filter5_d_502_1318" x="245.531" y="59.1483" width="45.3137" height="50.3137" filterUnits="userSpaceOnUse" color-interpolation-filters="sRGB">
<feFlood flood-opacity="0" result="BackgroundImageFix"/>
<feColorMatrix in="SourceAlpha" type="matrix" values="0 0 0 0 0 0 0 0 0 0 0 0 0 0 0 0 0 0 127 0" result="hardAlpha"/>
<feOffset dy="5"/>
<feComposite in2="hardAlpha" operator="out"/>
<feColorMatrix type="matrix" values="0 0 0 0 0 0 0 0 0 0 0 0 0 0 0 0 0 0 1 0"/>
<feBlend mode="normal" in2="BackgroundImageFix" result="effect1_dropShadow_502_1318"/>
<feBlend mode="normal" in="SourceGraphic" in2="effect1_dropShadow_502_1318" result="shape"/>
</filter>
<filter id="filter6_d_502_1318" x="294.458" y="59.1483" width="45.3137" height="50.3137" filterUnits="userSpaceOnUse" color-interpolation-filters="sRGB">
<feFlood flood-opacity="0" result="BackgroundImageFix"/>
<feColorMatrix in="SourceAlpha" type="matrix" values="0 0 0 0 0 0 0 0 0 0 0 0 0 0 0 0 0 0 127 0" result="hardAlpha"/>
<feOffset dy="5"/>
<feComposite in2="hardAlpha" operator="out"/>
<feColorMatrix type="matrix" values="0 0 0 0 0 0 0 0 0 0 0 0 0 0 0 0 0 0 1 0"/>
<feBlend mode="normal" in2="BackgroundImageFix" result="effect1_dropShadow_502_1318"/>
<feBlend mode="normal" in="SourceGraphic" in2="effect1_dropShadow_502_1318" result="shape"/>
</filter>
<filter id="filter7_d_502_1318" x="343.999" y="36.3708" width="13.0007" height="73.1881" filterUnits="userSpaceOnUse" color-interpolation-filters="sRGB">
<feFlood flood-opacity="0" result="BackgroundImageFix"/>
<feColorMatrix in="SourceAlpha" type="matrix" values="0 0 0 0 0 0 0 0 0 0 0 0 0 0 0 0 0 0 127 0" result="hardAlpha"/>
<feOffset dy="5"/>
<feComposite in2="hardAlpha" operator="out"/>
<feColorMatrix type="matrix" values="0 0 0 0 0 0 0 0 0 0 0 0 0 0 0 0 0 0 1 0"/>
<feBlend mode="normal" in2="BackgroundImageFix" result="effect1_dropShadow_502_1318"/>
<feBlend mode="normal" in="SourceGraphic" in2="effect1_dropShadow_502_1318" result="shape"/>
</filter>
</defs>
</svg>
