<svg width="144" height="42" viewBox="0 0 144 42" fill="none" xmlns="http://www.w3.org/2000/svg">
<path d="M28.4469 9.27289C23.539 9.27289 19.5488 13.2327 19.5488 18.1034C19.5488 22.9741 23.539 26.9339 28.4469 26.9339C33.3549 26.9339 37.3451 22.9741 37.3451 18.1034C37.3451 13.2327 33.3549 9.27289 28.4469 9.27289ZM28.4469 22.4449C26.0345 22.4449 24.0722 20.4975 24.0722 18.1034C24.0722 15.7093 26.0345 13.7619 28.4469 13.7619C30.8594 13.7619 32.8217 15.7093 32.8217 18.1034C32.8217 20.4975 30.8594 22.4449 28.4469 22.4449Z" fill="white"/>
<path d="M16.826 9.13843H14.2431C13.7099 9.13843 13.2729 9.56781 13.2729 10.1013V10.4222C11.9792 9.69359 10.4889 9.27722 8.89812 9.27722C3.99017 9.27288 0 13.2327 0 18.1034C0 22.9741 3.99017 26.9339 8.89812 26.9339C10.4889 26.9339 11.9792 26.5175 13.2729 25.7889V30.2302C13.2729 32.5679 11.3761 34.4763 9.02923 34.5153C6.6124 34.5544 4.63261 32.5419 4.63261 30.1434V29.1372C4.63261 28.6081 4.19995 28.1744 3.66239 28.1744H1.07949C0.546299 28.1744 0.10926 28.6037 0.10926 29.1372V30.0957C0.10926 34.91 3.96394 38.9306 8.81508 39C13.7536 39.0737 17.7919 35.1095 17.7919 30.2258V10.097C17.7919 9.56781 17.3592 9.13409 16.8216 9.13409L16.826 9.13843ZM8.89812 22.4449C6.48566 22.4449 4.52335 20.4975 4.52335 18.1034C4.52335 15.7093 6.48566 13.7619 8.89812 13.7619C11.3106 13.7619 13.2729 15.7093 13.2729 18.1034C13.2729 20.4975 11.3106 22.4449 8.89812 22.4449Z" fill="white"/>
<path d="M67.964 9.27289C63.0561 9.27289 59.0659 13.2327 59.0659 18.1034C59.0659 22.9741 63.0561 26.9339 67.964 26.9339C72.872 26.9339 76.8621 22.9741 76.8621 18.1034C76.8621 13.2327 72.872 9.27289 67.964 9.27289ZM67.964 22.4449C65.5516 22.4449 63.5893 20.4975 63.5893 18.1034C63.5893 15.7093 65.5516 13.7619 67.964 13.7619C70.3765 13.7619 72.3388 15.7093 72.3388 18.1034C72.3388 20.4975 70.3765 22.4449 67.964 22.4449Z" fill="white"/>
<path d="M55.9278 9.13843H53.3449C52.8117 9.13843 52.3747 9.56781 52.3747 10.1013V10.4222C51.081 9.69359 49.5907 9.27722 47.9999 9.27722C43.0963 9.27722 39.1018 13.2371 39.1018 18.1077C39.1018 22.9784 43.092 26.9383 47.9999 26.9383C49.5907 26.9383 51.081 26.5219 52.3747 25.7932V30.2345C52.3747 32.633 50.3818 34.576 47.9562 34.5197C45.6312 34.4676 43.7344 32.4552 43.7344 30.1478V29.1415C43.7344 28.6124 43.3018 28.1787 42.7642 28.1787H40.1813C39.6481 28.1787 39.2111 28.6081 39.2111 29.1415V30.1001C39.2111 34.8059 42.8953 38.7788 47.6328 38.9956C52.6981 39.2298 56.8937 35.2093 56.8937 30.2302V10.097C56.8937 9.56781 56.461 9.13409 55.9234 9.13409L55.9278 9.13843ZM47.9999 22.4449C45.5875 22.4449 43.6252 20.4975 43.6252 18.1034C43.6252 15.7093 45.5875 13.7619 47.9999 13.7619C50.4124 13.7619 52.3747 15.7093 52.3747 18.1034C52.3747 20.4975 50.4124 22.4449 47.9999 22.4449Z" fill="white"/>
<path d="M88.5311 9.17316C86.9447 9.17316 85.4587 9.5982 84.1694 10.3355C84.1563 9.80639 83.7237 9.38134 83.1861 9.38134H80.6906C80.1487 9.38134 79.7073 9.8194 79.7073 10.3572V37.5817C79.7073 38.1195 80.1487 38.5576 80.6906 38.5576H83.1861C83.728 38.5576 84.1694 38.1195 84.1694 37.5817V25.455C85.4543 26.1879 86.9403 26.613 88.5267 26.613C93.3691 26.613 97.3112 22.7008 97.3112 17.8952C97.3112 13.0896 93.3691 9.17749 88.5267 9.17749L88.5311 9.17316ZM88.5311 22.176C86.1492 22.176 84.2088 20.2547 84.2088 17.8866C84.2088 15.5185 86.1449 13.5971 88.5311 13.5971C90.9173 13.5971 92.8534 15.5185 92.8534 17.8866C92.8534 20.2547 90.9173 22.176 88.5311 22.176Z" fill="white"/>
<path d="M108.377 9.17316C103.535 9.17316 99.5925 13.0853 99.5925 17.8909C99.5925 22.6965 103.535 26.6087 108.377 26.6087C113.219 26.6087 117.161 22.6965 117.161 17.8909C117.161 13.0853 113.219 9.17316 108.377 9.17316ZM108.377 22.176C105.995 22.176 104.055 20.2547 104.055 17.8866C104.055 15.5185 105.991 13.5971 108.377 13.5971C110.763 13.5971 112.699 15.5185 112.699 17.8866C112.699 20.2547 110.763 22.176 108.377 22.176Z" fill="white"/>
<path d="M128.223 9.17316C123.381 9.17316 119.438 13.0853 119.438 17.8909C119.438 22.6965 123.381 26.6087 128.223 26.6087C133.065 26.6087 137.007 22.6965 137.007 17.8909C137.007 13.0853 133.065 9.17316 128.223 9.17316ZM128.223 22.176C125.841 22.176 123.901 20.2547 123.901 17.8866C123.901 15.5185 125.837 13.5971 128.223 13.5971C130.609 13.5971 132.545 15.5185 132.545 17.8866C132.545 20.2547 130.609 22.176 128.223 22.176Z" fill="white"/>
<path d="M143.017 0H140.521C139.978 0 139.538 0.436911 139.538 0.975867V25.6675C139.538 26.2064 139.978 26.6433 140.521 26.6433H143.017C143.56 26.6433 144 26.2064 144 25.6675V0.975867C144 0.436911 143.56 0 143.017 0Z" fill="white"/>
</svg>
