<svg width="840" height="1017" viewBox="0 0 840 1017" fill="none" xmlns="http://www.w3.org/2000/svg">
<g clip-path="url(#clip0_581_204)">
<path d="M328.45 822.095C327.358 827.31 322.244 830.649 317.029 829.557L310.692 828.227C305.478 827.136 302.14 822.021 303.232 816.805L310.269 806.737C311.361 801.521 310.766 801.913 315.979 803.007L322.316 804.338C327.53 805.429 329.54 816.883 328.446 822.093L328.45 822.095Z" fill="#E6E6E6"/>
<path d="M309.011 828.521C306.952 827.751 305.193 826.352 303.97 824.474C302.453 822.15 301.928 819.371 302.5 816.652L302.531 816.503L309.568 806.435C309.652 806.041 309.722 805.682 309.788 805.354C310.182 803.387 310.38 802.398 311.171 801.88C311.963 801.361 312.949 801.577 314.905 802.008C315.275 802.09 315.683 802.179 316.134 802.271L322.471 803.601C328.244 804.817 330.34 816.74 329.183 822.248C328.611 824.967 327.017 827.299 324.692 828.82C322.368 830.338 319.589 830.863 316.871 830.292L310.534 828.962C310.01 828.851 309.5 828.704 309.003 828.518L309.011 828.521ZM303.94 817.11C303.501 819.389 303.959 821.706 305.228 823.653C306.526 825.642 308.522 827.006 310.847 827.491L317.184 828.821C319.508 829.309 321.885 828.862 323.876 827.561C325.865 826.263 327.229 824.266 327.715 821.936C328.259 819.344 327.983 815.298 327.028 811.868C325.94 807.967 324.167 805.491 322.167 805.068L315.83 803.738C315.373 803.643 314.961 803.553 314.587 803.47C313.286 803.184 312.259 802.96 311.995 803.13C311.731 803.3 311.525 804.334 311.265 805.641C311.189 806.014 311.107 806.428 311.012 806.886L310.98 807.035L303.944 817.1L303.94 817.11Z" fill="black"/>
<path d="M34.447 751.173L28.3599 755.376C24.3046 753.222 22.6203 748.448 24.6034 744.721L27.0114 740.19C28.9909 736.462 33.8869 735.187 37.9458 737.343L45.7373 742.655C49.7926 744.809 48.6131 746.891 46.63 750.618L44.222 755.149C42.2424 758.878 38.5023 753.327 34.447 751.173Z" fill="#E6E6E6"/>
<path d="M28.4127 756.254L28.0079 756.038C23.5923 753.689 21.7678 748.454 23.9409 744.369L26.3489 739.838C28.5234 735.749 33.8809 734.335 38.2978 736.68L38.37 736.723L46.1303 742.012C48.2457 743.143 49.2233 744.412 49.2028 746C49.1874 747.415 48.3903 748.914 47.3816 750.807L44.8893 755.499C44.4048 756.409 43.7646 756.952 42.9887 757.107C41.3745 757.434 39.6704 756.039 37.6983 754.427C36.6546 753.571 35.5797 752.692 34.4913 752.052L28.414 756.25L28.4127 756.254ZM36.6019 737.558C33.1431 736.265 29.3036 737.481 27.6787 740.54L25.2707 745.071C23.5514 748.307 24.9261 752.439 28.3231 754.487L34.3957 750.292L34.8004 750.507C36.1557 751.227 37.4233 752.266 38.6496 753.266C40.1852 754.522 41.7727 755.822 42.6924 755.636C42.8097 755.612 43.1654 755.54 43.5644 754.795L46.0567 750.103C46.971 748.387 47.6903 747.031 47.7008 745.984C47.7085 745.277 47.4391 744.41 45.3888 743.319L45.3166 743.276L37.5564 737.987C37.2415 737.822 36.9221 737.678 36.6019 737.558Z" fill="black"/>
<g clip-path="url(#clip1_581_204)">
<path d="M757.304 735.014L706.916 730.504C721.52 567.35 600.664 422.731 437.509 408.127C274.354 393.524 129.736 514.38 115.132 677.535L64.7447 673.024C81.835 482.089 251.084 340.65 442.019 357.74C632.954 374.83 774.394 544.079 757.304 735.014Z" fill="#A4D827" stroke="black" stroke-width="2" stroke-miterlimit="10"/>
<path d="M710.275 730.805L659.888 726.295C672.17 589.073 570.521 467.438 433.3 455.156C296.078 442.873 174.443 544.522 162.16 681.744L111.773 677.234C126.544 512.215 272.808 389.999 437.81 404.768C602.812 419.537 725.046 565.786 710.275 730.805Z" fill="#AC60EF" stroke="black" stroke-width="2" stroke-miterlimit="10"/>
<path d="M659.166 726.23L608.779 721.72C618.538 612.682 537.764 516.025 428.725 506.265C319.687 496.505 223.03 577.28 213.27 686.319L162.883 681.809C175.129 544.99 296.4 443.63 433.235 455.878C570.071 468.126 671.412 589.411 659.166 726.23Z" fill="#FFC700" stroke="black" stroke-width="2" stroke-miterlimit="10"/>
<path d="M608.711 721.714L558.323 717.204C565.594 635.979 505.433 563.99 424.209 556.72C342.984 549.45 270.995 609.61 263.725 690.835L213.337 686.325C223.094 577.32 319.714 496.576 428.719 506.333C537.724 516.089 618.468 612.709 608.711 721.714Z" fill="#48BEFF" stroke="black" stroke-width="2" stroke-miterlimit="10"/>
<path d="M565.73 717.867L515.343 713.357C520.492 655.831 477.887 604.85 420.362 599.701C362.836 594.551 311.854 637.156 306.705 694.682L256.318 690.172C263.953 604.866 339.566 541.677 424.872 549.313C510.178 556.949 573.366 632.561 565.73 717.867Z" fill="#FF3145" stroke="black" stroke-width="2" stroke-miterlimit="10"/>
</g>
<path d="M780.243 768.141L678.383 681.455L729.764 758.999C729.764 758.999 753.768 767.191 780.24 768.14L780.243 768.141Z" fill="#E6E6E6"/>
<path d="M729.28 759.628L729.139 759.415L674.817 677.435L782.375 768.971L780.215 768.893C753.933 767.951 729.764 759.793 729.522 759.71L729.28 759.628ZM681.949 685.476L730.248 758.369C732.752 759.193 754.286 766.085 778.089 767.296L681.949 685.476Z" fill="black"/>
<path d="M18.7266 679.555C18.7266 679.555 -0.514336 689.602 4.89752 694.317C8.24303 697.232 18.578 703.443 25.9856 707.765C31.0719 710.734 37.1445 711.504 42.8154 709.906L49.0735 708.143C49.0735 708.143 83.6033 716.565 98.4717 731.996C113.34 747.427 136.023 746.742 150.246 742.285C164.473 737.829 224.484 750.086 224.484 750.086L257.017 768.652L282.724 781.805C296.419 788.811 312.22 790.507 327.089 786.564L364.365 776.679L420.088 790.333L472.773 784.596L512.583 773.769L542.594 767.44C570.675 761.522 599.858 763.713 626.737 773.763L732.496 813.306C742.21 816.938 752.857 817.232 762.758 814.143L778.135 809.347C786.479 806.747 791.778 798.559 790.735 789.882L788.986 775.297L586.988 658.811L432.546 666.558L301.817 660.816L95.5566 672.582L18.7195 679.553L18.7266 679.555Z" fill="black"/>
<path d="M113.433 742.599C107.803 740.494 102.482 737.241 97.9288 732.515C83.9507 718.006 51.8611 709.622 49.0848 708.917L43.0188 710.628C37.1858 712.274 30.8422 711.466 25.6069 708.414C17.7778 703.846 7.74152 697.791 4.40525 694.883C3.49133 694.088 3.07754 693.071 3.21106 691.941C3.84071 686.621 16.8933 679.664 18.3787 678.888L18.5083 678.82L18.6574 678.807L95.4944 671.836L301.817 660.066L301.856 660.068L432.549 665.809L587.175 658.055L587.365 658.166L789.689 774.842L791.484 789.801C792.568 798.839 787.05 807.365 778.361 810.073L762.984 814.87C752.974 817.99 742.054 817.69 732.233 814.018L626.474 774.475C599.687 764.459 570.735 762.282 542.752 768.186L512.763 774.51L472.917 785.348L472.859 785.354L420.04 791.105L419.911 791.073L364.373 777.464L327.279 787.301C312.204 791.3 296.261 789.587 282.377 782.486L256.671 769.332L224.213 750.811C221.223 750.206 164.049 738.761 150.468 743.013C140.08 746.265 125.997 747.309 113.427 742.613L113.433 742.599ZM67.0704 713.018C77.8972 717.066 91.1024 723.259 99.0126 731.472C113.253 746.255 135.394 746.15 150.022 741.567C164.267 737.105 222.176 748.846 224.635 749.348L224.755 749.372L224.861 749.432L257.394 767.998L283.07 781.136C296.621 788.068 312.186 789.74 326.901 785.836L364.364 775.9L364.551 775.946L420.144 789.572L472.641 783.857L512.433 773.035L542.443 766.706C570.707 760.748 599.949 762.944 627.003 773.06L732.762 812.603C742.273 816.159 752.847 816.454 762.541 813.428L777.918 808.632C785.913 806.138 790.993 798.29 789.995 789.974L788.29 775.763L586.811 659.575L432.557 667.312L432.521 667.311L301.831 661.571L95.6114 673.336L18.9485 680.292C15.0126 682.367 5.15689 688.325 4.70702 692.124C4.63285 692.762 4.85183 693.281 5.39703 693.753C8.64572 696.585 18.5949 702.583 26.3716 707.119C31.2542 709.968 37.1764 710.722 42.6191 709.187L49.0671 707.366L49.258 707.413C49.919 707.576 57.583 709.475 67.0762 713.024L67.0704 713.018Z" fill="black"/>
<path d="M183.856 642.118C183.856 642.118 194.533 618.841 205.658 616.599C216.783 614.357 282.193 642.014 312.239 624.435C342.285 606.857 272.189 678.21 272.189 678.21L183.856 642.118Z" fill="#E6E6E6"/>
<path d="M272.375 679.094L271.909 678.904L182.849 642.516L183.176 641.804C183.617 640.837 194.144 618.154 205.514 615.859C209.121 615.134 217.496 617.235 229.09 620.142C253.894 626.367 291.373 635.772 311.866 623.782C316.779 620.906 319.18 620.244 320.153 621.494C321.424 623.124 319.755 628.06 297.742 652.268C285.597 665.626 272.859 678.605 272.731 678.734L272.375 679.094ZM184.879 641.722L272.007 677.324C274.125 675.155 285.425 663.564 296.328 651.587C319.188 626.476 319.19 622.879 318.956 622.41C318.939 622.412 318.019 621.923 312.619 625.083C291.601 637.381 253.759 627.885 228.72 621.604C217.747 618.849 209.079 616.675 205.807 617.337C196.252 619.263 186.763 637.842 184.877 641.726L184.879 641.722Z" fill="black"/>
<path d="M114.475 660.201C114.475 660.201 131.301 634.678 150.138 638.52C168.974 642.362 249.643 645.929 249.643 645.929L323.176 718.041L114.476 660.197L114.475 660.201Z" fill="#E6E6E6"/>
<path d="M113.28 660.652L113.847 659.789C113.891 659.725 118.182 653.259 124.738 647.363C133.505 639.477 142.339 636.166 150.284 637.785C168.846 641.568 248.866 645.145 249.674 645.183L249.962 645.194L325.781 719.548L113.28 660.652ZM249.322 646.672C244.005 646.433 168.099 642.954 149.986 639.258C140.573 637.339 131.62 643.201 125.768 648.458C120.738 652.975 117.072 657.834 115.695 659.758L320.573 716.542L249.323 646.668L249.322 646.672Z" fill="black"/>
<path d="M767.007 756.646L748.659 678.634C745.672 665.932 734.789 659.171 722.295 662.254L686.97 670.975C678.725 673.011 671.111 669.98 667.043 663.035L655.578 643.478C652.661 638.504 652 631.895 653.744 625.214L664.388 584.421C669.006 566.729 656.573 553.516 641.068 559.64L623.052 566.755C621.075 567.536 619.07 568.018 617.096 568.182L495.415 578.013C484.857 578.867 474.726 577.258 465.639 573.298C434.415 559.682 414.005 553.7 411.297 558.419C405.576 568.402 481.116 622.435 580.025 679.108C678.933 735.781 763.756 773.633 769.476 763.654C770.307 762.204 769.421 759.823 767 756.643L767.007 756.646Z" fill="white"/>
<path d="M737.303 758.648C729.301 755.657 719.97 751.782 709.393 747.066C673.586 731.086 627.511 707.184 579.655 679.764C531.795 652.343 487.877 624.678 455.991 601.87C440.467 590.766 428.636 581.413 420.826 574.068C412.36 566.109 409.03 560.869 410.65 558.049C412.186 555.366 417.855 555.436 427.979 558.263C437.294 560.863 450.067 565.691 465.943 572.614C474.975 576.549 484.872 578.119 495.36 577.271L617.041 567.44C618.938 567.278 620.871 566.818 622.782 566.06L640.795 558.944C647.835 556.162 654.732 557.099 659.714 561.514C665.525 566.663 667.546 575.3 665.115 584.612L654.47 625.406C652.784 631.867 653.425 638.316 656.229 643.099L667.693 662.657C671.579 669.288 678.898 672.193 686.793 670.247L722.118 661.526C728.303 660 734.414 660.808 739.323 663.811C744.313 666.864 747.891 672.065 749.394 678.459L767.704 756.317C770.322 759.795 771.119 762.319 770.138 764.03C768.522 766.851 762.316 766.629 751.167 763.347C747.121 762.155 742.493 760.589 737.306 758.65L737.303 758.648ZM442.895 564.815C416.974 555.123 412.653 557.571 411.95 558.796C411.024 560.415 411.521 568.214 456.863 600.643C488.71 623.425 532.585 651.057 580.401 678.455C628.218 705.852 674.246 729.729 710.004 745.69C721.37 750.762 730.554 754.528 737.964 757.299C763.741 766.937 768.108 764.535 768.827 763.279C769.46 762.176 768.6 759.981 766.406 757.095L766.31 756.967L766.272 756.812L747.924 678.8C746.513 672.801 743.176 667.931 738.529 665.086C733.901 662.253 728.347 661.524 722.469 662.977L687.144 671.699C678.577 673.814 670.625 670.636 666.389 663.409L654.925 643.851C651.923 638.73 651.226 631.862 653.011 625.017L663.656 584.223C665.94 575.466 664.093 567.395 658.713 562.627C654.17 558.602 647.838 557.763 641.339 560.331L623.323 567.446C621.276 568.253 619.201 568.753 617.152 568.921L495.468 578.751C484.728 579.618 474.589 578.012 465.331 573.973C456.461 570.107 449.06 567.108 442.885 564.799L442.895 564.815Z" fill="black"/>
<path d="M749.533 737.22L748.42 738.285L766.445 757.131L767.559 756.066L749.533 737.22Z" fill="black"/>
<path d="M748.992 730.889L747.868 731.943L764.657 749.844L765.781 748.79L748.992 730.889Z" fill="black"/>
<path d="M748.444 724.485L747.309 725.526L762.864 742.481L763.999 741.44L748.444 724.485Z" fill="black"/>
<path d="M747.897 718.1L746.75 719.128L761.071 735.137L762.219 734.11L747.897 718.1Z" fill="black"/>
<path d="M747.364 711.843L746.201 712.853L759.284 727.916L760.447 726.906L747.364 711.843Z" fill="black"/>
<path d="M746.822 705.468L745.643 706.459L757.49 720.576L758.67 719.586L746.822 705.468Z" fill="black"/>
<path d="M746.273 699.034L745.074 700L755.689 713.172L756.888 712.205L746.273 699.034Z" fill="black"/>
<path d="M745.734 692.689L744.512 693.626L753.892 705.853L755.114 704.915L745.734 692.689Z" fill="black"/>
<path d="M745.196 686.285L743.947 687.187L752.094 698.468L753.342 697.566L745.196 686.285Z" fill="black"/>
<path d="M744.664 680.007L743.383 680.863L750.294 691.201L751.575 690.345L744.664 680.007Z" fill="black"/>
<path d="M744.128 673.726L742.81 674.523L748.485 683.915L749.804 683.118L744.128 673.726Z" fill="black"/>
<path d="M743.598 667.377L742.235 668.094L746.676 676.541L748.039 675.824L743.598 667.377Z" fill="black"/>
<path d="M656.597 571.526L655.911 572.42L664.962 579.371L665.648 578.477L656.597 571.526Z" fill="black"/>
<path d="M654.101 574.637L653.415 575.531L663.871 583.558L664.557 582.664L654.101 574.637Z" fill="black"/>
<path d="M651.67 577.944L650.983 578.838L662.844 587.947L663.531 587.053L651.67 577.944Z" fill="black"/>
<path d="M649.208 581.15L648.522 582.044L661.786 592.231L662.472 591.337L649.208 581.15Z" fill="black"/>
<path d="M646.742 584.357L646.055 585.251L660.723 596.515L661.409 595.621L646.742 584.357Z" fill="black"/>
<path d="M644.246 587.458L643.56 588.352L659.633 600.691L660.319 599.797L644.246 587.458Z" fill="black"/>
<path d="M641.818 590.777L641.131 591.671L658.605 605.09L659.292 604.196L641.818 590.777Z" fill="black"/>
<path d="M651.704 602.698L651.017 603.592L657.709 608.731L658.395 607.837L651.704 602.698Z" fill="black"/>
<path d="M650.938 606.548L650.252 607.442L656.801 612.47L657.488 611.576L650.938 606.548Z" fill="black"/>
<path d="M650.238 610.61L649.551 611.504L655.957 616.423L656.643 615.529L650.238 610.61Z" fill="black"/>
<path d="M649.474 614.462L648.788 615.356L655.051 620.165L655.738 619.271L649.474 614.462Z" fill="black"/>
<path d="M648.748 618.434L648.062 619.328L654.182 624.026L654.868 623.132L648.748 618.434Z" fill="black"/>
<path d="M648.046 622.497L647.36 623.391L653.336 627.981L654.023 627.087L648.046 622.497Z" fill="black"/>
<path d="M647.284 626.348L646.598 627.242L652.432 631.721L653.118 630.827L647.284 626.348Z" fill="black"/>
<path d="M646.58 630.408L645.893 631.302L651.587 635.675L652.273 634.781L646.58 630.408Z" fill="black"/>
<path d="M645.819 634.258L645.133 635.152L650.684 639.414L651.37 638.52L645.819 634.258Z" fill="black"/>
<path d="M645.093 638.23L644.406 639.124L649.815 643.276L650.501 642.382L645.093 638.23Z" fill="black"/>
<path d="M644.357 642.169L643.67 643.063L648.936 647.105L649.622 646.211L644.357 642.169Z" fill="black"/>
<path d="M643.629 646.144L642.942 647.038L648.065 650.971L648.751 650.076L643.629 646.144Z" fill="black"/>
<path d="M643.231 576.414L642.544 577.308L646.388 580.26L647.074 579.366L643.231 576.414Z" fill="black"/>
<path d="M644.035 605.88L643.323 606.754L647.083 609.817L647.795 608.943L644.035 605.88Z" fill="black"/>
<path d="M690.27 691.913C719.858 723.794 744.456 771.275 788.988 775.302C702.447 767.477 669.989 728.414 618.227 721.984C617.786 721.932 617.345 721.875 616.905 721.819C617.034 721.787 618.875 722.054 626.044 721.887C633.632 721.864 647.158 721.353 671.536 723.075C691.182 724.881 696.514 718.708 694.628 709.788C692.984 701.528 680.453 684.692 674.049 677.3C675.629 679.07 678.21 681.928 678.678 682.316C682.379 685.397 686.255 688.599 690.274 691.914L690.27 691.913Z" fill="white"/>
<path d="M484.623 387.879C484.623 387.879 484.646 387.892 484.659 387.901C484.933 388.625 479.443 404.972 472.123 427.446C464.886 450.834 455.698 480.76 456.823 510.884C459.575 541.003 465.69 539.406 469.249 533.364C472.649 527.198 480.334 515.836 486.291 522.708C487.606 525.531 489.024 528.303 490.527 531.039C490.567 531.114 490.609 531.186 490.65 531.258C490.65 531.258 490.654 531.259 490.652 531.262C491.48 532.92 496.128 543.723 502.851 557.031C509.832 571.655 519.262 589.241 521.022 604.937C524.383 636.835 534.42 602.148 565.594 606.556C595.416 610.538 618.004 623.729 619.766 624.765C619.768 624.77 619.772 624.771 619.775 624.772C637.756 640.749 655.857 657.586 672.804 675.9C672.807 675.901 672.81 675.906 672.815 675.912C672.822 675.915 672.828 675.921 672.833 675.93C672.951 676.063 673.359 676.528 673.917 677.15C673.943 677.176 673.967 677.209 673.993 677.235C674.002 677.242 674.01 677.253 674.025 677.267C674.03 677.277 674.039 677.284 674.045 677.29C680.449 684.683 692.979 701.518 694.623 709.778C696.508 718.702 691.177 724.872 671.531 723.066C647.154 721.344 633.629 721.851 626.04 721.877C618.87 722.044 617.029 721.777 616.901 721.809C579.142 717.166 540.577 708.98 498.794 709.704C484.089 709.957 468.982 711.317 453.378 714.319C433.459 718.155 416.4 720.714 401.724 722.263C409.364 718.316 443.933 699.548 458.969 688.403C477.406 675.946 487.124 663.182 491.718 663.391C495.864 663.65 510.517 675.647 521.533 688.971C523.531 691.263 525.84 693.466 528.289 695.529C533.886 700.253 541.099 692.043 535.751 687.039C525.447 677.398 513.374 668.456 504.414 658.407C502.454 656.206 499.844 655.077 497.362 655.333C494.681 655.606 491.975 655.882 489.247 656.162C482.414 656.836 477.241 648.135 479.166 641.261C486.333 618.176 474.293 581.645 424.228 546.832C406.314 533.808 394.074 517.086 389.971 499.153C385.713 481.248 389.591 462.124 400.464 444.917C411.071 427.692 428.668 412.378 445.735 401.731C462.066 391.251 477.89 385.238 477.543 384.987C479.62 385.395 481.473 386.048 483.061 386.918C483.614 387.209 484.14 387.53 484.627 387.877L484.623 387.879Z" fill="white"/>
<path d="M690.27 691.913C686.251 688.601 682.373 685.394 678.675 682.315C678.21 681.928 675.626 679.068 674.046 677.298C674.04 677.292 674.031 677.285 674.026 677.275C674.015 677.263 674.007 677.252 673.994 677.243C673.968 677.217 673.944 677.184 673.918 677.158C673.538 676.715 673.179 676.313 672.849 675.952C678.944 680.458 684.695 685.909 690.267 691.911L690.27 691.913Z" fill="white"/>
<path d="M672.85 675.949C673.179 676.313 673.538 676.715 673.919 677.155C673.361 676.533 672.95 676.067 672.835 675.935C672.842 675.938 672.844 675.943 672.85 675.949Z" fill="white"/>
<path d="M672.82 675.914C672.82 675.914 672.81 675.906 672.806 675.904C672.81 675.906 672.816 675.913 672.82 675.914Z" fill="white"/>
<path d="M536.19 559.144L536.208 559.15C536.613 559.278 537.02 559.402 537.431 559.527C537.488 559.545 537.516 559.555 537.516 559.555C546.717 562.406 555.734 567.971 563.438 575.115C580.995 591.195 600.307 607.485 619.761 624.767C617.995 623.73 595.407 610.539 565.59 606.558C534.419 602.152 524.378 636.838 521.017 604.939C519.257 589.243 509.827 571.657 502.846 557.033C496.124 543.722 491.476 532.922 490.647 531.265C497.076 542.71 508.162 550.625 519.571 554.081C525.035 555.727 530.57 557.411 536.189 559.147L536.19 559.144Z" fill="white"/>
<path d="M535.749 687.042C541.099 692.043 533.885 700.256 528.288 695.532C525.839 693.469 523.534 691.268 521.531 688.975C510.518 675.655 495.865 663.658 491.717 663.395C487.123 663.185 477.406 675.946 458.968 688.406C443.932 699.552 409.366 718.321 401.723 722.266L401.719 722.265C394.703 723.011 388.24 723.519 382.263 723.823C370.512 724.423 368.665 708.855 360.316 708.092C352.265 707.356 337.605 721.466 331.987 719.855C292.685 708.569 304.422 680.491 244.658 701.298C109.244 748.45 85.91 683.708 18.7147 679.555C21.6579 678.505 24.6991 677.504 27.8362 676.547L27.8397 676.549C28.8084 676.586 42.0083 676.539 63.9573 677.313C86.4004 678.031 141.221 662.539 173.246 663.943C205.242 665.337 214.447 683.62 237.274 683.302C260.264 683.05 273.818 681.274 272.18 678.211C264.213 665.152 267.775 648.761 320.805 647.294C333.59 646.619 346.024 639.891 353.787 629.641C361.83 619.423 365.197 605.676 366.476 591.713C368.152 564.157 364.827 534.747 379.731 540.311C383.697 543.198 387.673 546.004 391.642 548.732C396.05 551.736 397.064 545.665 393.041 541.096C376.853 522.781 361.766 502.326 348.853 479.175C365.583 450.692 391.512 420.118 448.43 390.801C459.311 385.158 469.858 383.466 477.482 384.977C477.498 384.979 477.517 384.982 477.526 384.989C477.873 385.239 462.05 391.252 445.718 401.733C428.651 412.379 411.054 427.693 400.447 444.919C389.577 462.127 385.696 481.249 389.954 499.155C394.06 517.092 406.296 533.814 424.211 546.834C474.276 581.646 486.318 618.175 479.149 641.263C477.225 648.136 482.401 656.839 489.231 656.163C491.962 655.885 494.663 655.611 497.345 655.334C499.827 655.079 502.438 656.204 504.397 658.408C513.356 668.461 525.429 677.403 535.734 687.041L535.749 687.042Z" fill="white"/>
<path d="M486.287 522.707C480.331 515.835 472.645 527.197 469.245 533.363C465.686 539.405 459.575 541.003 456.82 510.883C455.695 480.759 464.883 450.832 472.119 427.445C479.439 404.971 484.93 388.624 484.655 387.899C490.911 392.3 492.085 400.701 487.745 411.193C469.307 456.859 472.059 492.284 486.287 522.707Z" fill="white"/>
<path d="M393.053 541.097C397.078 545.662 396.063 551.733 391.654 548.732C387.681 546.004 383.709 543.199 379.743 540.312C376.068 537.634 372.398 534.89 368.729 532.066C363.26 527.827 358.266 528.86 357.081 534.602C356.544 537.241 356.009 539.861 355.472 542.456C351.7 522.715 348.386 501.716 348.865 479.175C361.778 502.327 376.862 522.78 393.053 541.097Z" fill="black"/>
<path d="M366.488 591.714C365.209 605.677 361.843 619.42 353.799 629.641C346.036 639.892 333.601 646.623 320.817 647.294C267.79 648.763 264.229 665.154 272.192 678.211C273.83 681.275 260.276 683.05 237.286 683.303C214.459 683.621 205.254 665.337 173.257 663.944C141.237 662.541 86.4172 678.029 63.9692 677.314C42.0203 676.54 28.8203 676.586 27.8517 676.549C56.9424 667.65 93.9735 662.475 130.971 658.237C172.205 653.618 213.403 650.161 249.642 645.933C261.369 644.57 272.491 641.211 281.287 636.124C329.626 608.77 345.412 577.901 355.472 542.456C356.005 539.86 356.543 537.241 357.081 534.602C358.267 528.856 363.261 527.823 368.729 532.066C372.398 534.89 376.068 537.634 379.743 540.312C364.843 534.749 368.168 564.159 366.488 591.714Z" fill="#E6E6E6"/>
<path d="M15.0179 680.078L18.474 678.847C21.3762 677.81 24.4583 676.797 27.628 675.828C28.0258 675.708 28.4445 675.928 28.5645 676.326C28.6844 676.724 28.4637 677.143 28.0659 677.263C26.1283 677.854 24.2233 678.466 22.3715 679.085C43.028 681.052 59.5316 688.635 76.9544 696.633C95.4998 705.148 114.678 713.955 140.612 716.76C170.061 719.945 204.019 714.656 244.418 700.591C283.521 686.976 292.352 694.1 304.569 703.964C311.098 709.232 318.499 715.201 332.196 719.135C334.612 719.829 339.586 716.832 344.401 713.931C350.105 710.496 356.001 706.944 360.382 707.347C364.424 707.714 366.952 711.111 369.629 714.707C372.806 718.975 376.093 723.389 382.222 723.074C388.28 722.768 394.809 722.244 401.635 721.524C402.05 721.478 402.418 721.78 402.46 722.193C402.502 722.606 402.203 722.975 401.791 723.018C394.938 723.745 388.377 724.268 382.295 724.573C375.362 724.925 371.675 719.973 368.42 715.603C365.948 712.284 363.614 709.149 360.241 708.838C356.348 708.482 350.411 712.058 345.172 715.214C339.618 718.56 334.821 721.448 331.778 720.575C317.787 716.559 310.261 710.484 303.62 705.129C291.778 695.571 283.218 688.668 244.903 702.007C204.287 716.148 170.119 721.463 140.442 718.253C114.266 715.422 94.9744 706.564 76.319 698C58.0274 689.601 40.7519 681.669 18.6674 680.303L15.006 680.078L15.0179 680.078Z" fill="black"/>
<path d="M401.466 722.973C401.21 722.877 401.014 722.639 400.983 722.347C400.94 721.934 401.239 721.564 401.652 721.522C416.888 719.914 434.244 717.246 453.242 713.587C468.017 710.744 482.917 709.231 498.789 708.956C529.475 708.424 558.493 712.699 586.553 716.833C596.57 718.307 606.924 719.832 616.996 721.071C617.406 721.124 617.699 721.498 617.65 721.909C617.6 722.32 617.226 722.613 616.812 722.562C606.72 721.32 596.359 719.793 586.331 718.318C558.328 714.193 529.374 709.93 498.812 710.46C483.025 710.731 468.212 712.24 453.524 715.064C434.483 718.731 417.083 721.407 401.807 723.016C401.687 723.027 401.572 723.012 401.466 722.973Z" fill="black"/>
<path d="M616.64 722.518C616.32 722.398 616.113 722.072 616.158 721.716C616.212 721.303 616.588 721.015 617.001 721.069C617.438 721.124 617.878 721.18 618.316 721.231C640.41 723.977 658.592 732.444 679.644 742.245C704.573 753.852 732.465 766.835 773.334 772.718C747.636 763.908 728.876 740.339 710.637 717.426C703.864 708.917 696.86 700.117 689.719 692.421C683.613 685.842 677.946 680.65 672.403 676.552C672.07 676.307 671.998 675.835 672.246 675.503C672.491 675.169 672.964 675.097 673.296 675.345C678.915 679.496 684.647 684.748 690.819 691.4C697.997 699.134 705.021 707.958 711.81 716.489C733.342 743.541 755.602 771.511 789.024 774.549C789.031 774.552 789.04 774.551 789.051 774.551L788.916 776.049C788.916 776.049 788.886 776.046 788.87 776.044C738.965 771.524 707.112 756.694 679.01 743.608C658.075 733.859 639.991 725.441 618.134 722.728C617.692 722.675 617.247 722.621 616.808 722.561C616.75 722.555 616.696 722.539 616.643 722.519L616.64 722.518Z" fill="black"/>
<path d="M672.554 676.621C672.167 676.476 671.969 676.041 672.114 675.654C672.259 675.267 672.695 675.065 673.082 675.209C673.469 675.354 673.669 675.786 673.523 676.176C673.375 676.571 672.942 676.765 672.554 676.621Z" fill="black"/>
<path d="M619.502 625.472C619.417 625.441 619.338 625.395 619.267 625.328C611.518 618.444 603.72 611.657 596.184 605.093C584.52 594.94 573.505 585.346 562.934 575.669C555.032 568.346 546.171 563.02 537.297 560.271C536.902 560.148 536.678 559.727 536.802 559.332C536.926 558.937 537.346 558.713 537.741 558.837C546.827 561.652 555.891 567.091 563.949 574.564C574.501 584.226 585.511 593.814 597.166 603.96C604.705 610.525 612.506 617.313 620.261 624.204C620.571 624.48 620.597 624.955 620.325 625.266C620.112 625.504 619.783 625.578 619.498 625.471L619.502 625.472Z" fill="black"/>
<path d="M535.945 559.854C535.575 559.716 535.37 559.31 535.493 558.927C535.617 558.532 536.037 558.308 536.432 558.432C536.834 558.558 537.238 558.681 537.648 558.806C538.046 558.923 538.269 559.343 538.153 559.741C538.036 560.139 537.616 560.362 537.218 560.246C536.803 560.123 536.397 559.995 535.988 559.866C535.974 559.861 535.96 559.856 535.95 559.852L535.945 559.854Z" fill="black"/>
<path d="M516.232 553.743C505.068 549.569 495.622 541.645 489.997 531.631C489.795 531.271 489.922 530.813 490.284 530.607C490.646 530.401 491.102 530.532 491.308 530.894C497.263 541.492 507.647 549.675 519.793 553.358C525.553 555.094 530.99 556.75 536.415 558.425C536.81 558.549 537.034 558.969 536.91 559.364C536.787 559.759 536.366 559.983 535.971 559.86C530.553 558.187 525.116 556.531 519.36 554.796C518.304 554.477 517.265 554.125 516.237 553.741L516.232 553.743Z" fill="black"/>
<path d="M348.602 479.879C348.563 479.865 348.521 479.849 348.483 479.822C348.124 479.612 348.004 479.15 348.213 478.795C362.803 453.953 387.346 421.424 448.094 390.134C458.493 384.74 469.251 382.589 477.611 384.235C477.646 384.24 477.691 384.248 477.741 384.263C479.861 384.687 481.771 385.361 483.412 386.259C483.974 386.558 484.523 386.891 485.028 387.245C485.052 387.257 485.074 387.274 485.096 387.29C491.663 391.919 492.882 400.735 488.436 411.479C479.574 433.433 475.346 453.449 475.515 472.658C475.667 489.971 479.411 506.237 486.965 522.387C488.22 525.078 489.636 527.866 491.181 530.674C491.219 530.744 491.258 530.811 491.295 530.873C491.506 531.233 491.386 531.693 491.028 531.9C490.668 532.111 490.209 531.987 490.001 531.633C489.954 531.555 489.911 531.475 489.866 531.393C488.306 528.56 486.873 525.742 485.609 523.019C477.966 506.671 474.173 490.203 474.02 472.668C473.847 453.253 478.112 433.051 487.054 410.906C491.209 400.867 490.184 392.71 484.247 388.521C484.229 388.514 484.218 388.502 484.198 388.491C483.73 388.163 483.232 387.857 482.706 387.58C481.172 386.737 479.387 386.114 477.396 385.723L477.224 385.69L477.217 385.688C469.203 384.144 458.852 386.246 448.791 391.466C388.381 422.582 364.002 454.887 349.514 479.554C349.326 479.873 348.94 480.005 348.602 479.879Z" fill="black"/>
<path d="M27.5885 677.253C27.3773 677.174 27.2053 677.001 27.1316 676.769C27.0117 676.372 27.2325 675.953 27.6303 675.833C44.4666 670.684 69.8998 664.477 130.883 657.495C150.653 655.28 170.461 653.327 189.615 651.44C210.739 649.358 230.689 647.39 249.551 645.189C261.472 643.802 272.312 640.446 280.907 635.477C303.36 622.772 320.109 608.513 332.12 591.889C341.845 578.429 348.821 563.119 354.744 542.257C354.857 541.858 355.274 541.624 355.672 541.737C356.074 541.843 356.305 542.266 356.192 542.665C345.651 579.804 328.943 610.019 281.656 636.779C272.891 641.846 261.849 645.27 249.728 646.679C230.85 648.879 210.892 650.847 189.764 652.931C170.613 654.82 150.81 656.77 131.053 658.982C70.1936 665.954 44.842 672.136 28.0695 677.264C27.906 677.316 27.7376 677.305 27.5863 677.248L27.5885 677.253Z" fill="black"/>
<path d="M619.614 625.538L619.61 625.537C619.223 625.392 619.025 624.957 619.169 624.57C619.314 624.183 619.749 623.984 620.136 624.129C620.523 624.274 620.725 624.71 620.58 625.097C620.436 625.484 620.004 625.684 619.617 625.539L619.614 625.538Z" fill="black"/>
<path d="M525.422 619.081C525.306 619.038 525.193 618.987 525.081 618.933C522.579 617.709 521.186 613.679 520.273 605.018C518.761 591.504 511.453 576.477 505.007 563.224C504.034 561.224 503.081 559.267 502.171 557.358C497.122 547.36 493.166 538.612 491.265 534.408C490.74 533.249 490.339 532.357 490.101 531.858L489.98 531.601L489.929 531.502C489.778 531.305 489.728 531.033 489.822 530.78C489.967 530.392 490.402 530.194 490.789 530.339C490.972 530.407 491.089 530.523 491.176 530.656L491.616 530.82L491.464 531.225C491.706 531.737 492.098 532.597 492.635 533.789C494.532 537.984 498.476 546.711 503.518 556.695C504.436 558.615 505.386 560.57 506.356 562.566C512.857 575.931 520.219 591.079 521.765 604.858C522.582 612.616 523.844 616.662 525.74 617.588C527.571 618.493 530.579 616.617 534.384 614.249C541.089 610.077 551.227 603.771 565.698 605.817C594.351 609.642 616.081 621.738 620.147 624.121L620.365 624.267C620.672 624.53 620.716 624.992 620.461 625.309C620.216 625.611 619.783 625.674 619.468 625.464L619.222 625.372L619.189 625.299C615.896 623.39 593.808 611.084 565.5 607.303C551.562 605.333 542.097 611.22 535.183 615.522C531.012 618.119 527.949 620.026 525.429 619.084L525.422 619.081Z" fill="black"/>
<path d="M27.534 677.249L26.4045 676.826L535.798 196.037C536.101 195.753 536.577 195.766 536.861 196.069C537.145 196.372 537.131 196.848 536.829 197.132L29.666 675.816C34.2294 675.849 46.1421 675.931 63.9941 676.561C73.9891 676.88 90.8186 673.895 108.64 670.734C130.632 666.835 155.557 662.416 173.286 663.192C190.337 663.936 201.085 669.483 210.567 674.38C219.213 678.844 226.679 682.699 237.27 682.551C267.969 682.212 271.2 679.365 271.536 678.797C271.569 678.741 271.592 678.701 271.532 678.582C267.814 672.479 267.211 666.746 269.791 662.002C274.932 652.541 292.089 647.339 320.792 646.547C333.347 645.886 345.468 639.395 353.193 629.191C360.129 620.38 364.225 608.105 365.734 591.649C366.084 585.907 366.215 580.088 366.342 574.459C366.712 558.035 367.031 543.85 372.788 539.95C374.701 538.651 377.13 538.537 380.002 539.61C380.389 539.755 380.588 540.186 380.442 540.577C380.297 540.964 379.866 541.164 379.475 541.018C377.051 540.111 375.14 540.171 373.63 541.195C368.516 544.662 368.187 559.152 367.844 574.495C367.717 580.136 367.588 585.972 367.235 591.765C365.699 608.539 361.497 621.076 354.386 630.11C346.405 640.652 333.866 647.363 320.852 648.049C301.497 648.586 277.174 651.566 271.114 662.722C269.504 665.686 268.494 670.715 272.83 677.824L272.853 677.861C273.154 678.427 273.149 679.031 272.833 679.566C271.211 682.305 259.255 683.82 237.292 684.059C226.326 684.211 218.339 680.09 209.882 675.72C200.537 670.894 189.945 665.426 173.223 664.701C155.655 663.933 130.82 668.337 108.906 672.222C91.0068 675.397 74.1008 678.394 63.9466 678.071C46.0033 677.439 34.0668 677.357 29.5746 677.326C28.5668 677.318 28.0142 677.316 27.8242 677.309L27.8172 677.307C27.8172 677.307 27.7802 677.309 27.7648 677.307L27.6914 677.3C27.6382 677.292 27.5876 677.277 27.5384 677.258L27.534 677.249Z" fill="black"/>
<path d="M463.926 537.463C460.147 536.05 457.576 527.363 456.076 510.953L456.075 510.913C454.937 480.447 464.457 449.686 471.407 427.226C472.99 422.359 474.487 417.788 475.859 413.604C480.19 400.378 483.641 389.831 483.904 388.128C483.778 387.768 483.945 387.365 484.299 387.201C484.328 387.187 484.356 387.178 484.388 387.166L484.63 387.056L485.277 387.342L485.389 387.696C485.598 388.521 484.558 391.882 477.296 414.073C475.926 418.262 474.431 422.829 472.848 427.685C465.934 450.026 456.461 480.64 457.585 510.844C459.583 532.678 463.224 535.801 464.696 536.134C465.854 536.395 467.281 535.248 468.61 532.993C471.175 528.34 476.286 520.42 481.601 519.86C483.556 519.652 485.327 520.45 486.869 522.226L486.896 522.26C487.178 522.567 487.152 523.034 486.846 523.317C486.54 523.599 486.06 523.573 485.776 523.27C485.769 523.259 485.743 523.229 485.732 523.217C484.513 521.811 483.212 521.204 481.755 521.357C476.811 521.879 471.441 530.966 469.914 533.741C468.174 536.701 466.257 538.03 464.367 537.604C464.223 537.57 464.079 537.528 463.938 537.475L463.926 537.463Z" fill="black"/>
<path d="M616.635 722.532C616.35 722.426 616.154 722.156 616.144 721.851C616.14 721.733 616.164 721.614 616.214 721.513L616.334 721.192L616.713 721.089C616.855 721.054 616.953 721.059 617.278 721.08C618.043 721.125 620.368 721.269 626.02 721.136C627.172 721.133 628.445 721.12 629.863 721.1C637.705 721.012 650.832 720.862 671.583 722.327C682.187 723.303 689.15 722.004 692.292 718.469C694.112 716.422 694.648 713.554 693.888 709.944C692.374 702.334 680.813 686.263 673.475 677.795C673.204 677.481 673.236 677.008 673.55 676.736C673.864 676.464 674.338 676.497 674.609 676.811C677.607 680.271 682.364 686.285 686.741 692.803C690.157 697.891 694.423 704.942 695.359 709.644C696.227 713.739 695.571 717.048 693.417 719.472C689.938 723.382 682.552 724.848 671.464 723.827C650.79 722.367 637.704 722.516 629.883 722.604C628.457 722.62 627.185 722.634 626.04 722.639C620.335 722.773 617.963 722.628 617.186 722.582C617.119 722.577 617.065 722.573 617.024 722.574C616.897 722.594 616.764 722.584 616.634 722.536L616.635 722.532Z" fill="black"/>
<path d="M673.654 677.862C673.542 677.82 673.436 677.748 673.349 677.648C673.013 677.261 672.698 676.903 672.403 676.576L672.364 676.561L672.256 676.421C672.064 676.217 671.995 675.918 672.099 675.64C672.253 675.228 672.726 675.024 673.135 675.229L673.371 675.317L673.452 675.496C673.776 675.854 674.121 676.24 674.487 676.665C674.758 676.979 674.725 677.456 674.412 677.724C674.197 677.913 673.905 677.952 673.656 677.859L673.654 677.862Z" fill="black"/>
<path d="M673.654 677.862C673.545 677.821 673.442 677.755 673.357 677.659C672.82 677.057 672.419 676.606 672.281 676.45L672.25 676.415C653.79 656.464 634.242 638.637 619.271 625.338C618.961 625.062 618.934 624.586 619.211 624.276C619.487 623.967 619.962 623.94 620.272 624.216C635.233 637.512 654.763 655.319 673.233 675.266L673.268 675.279L673.368 675.409C673.388 675.432 673.411 675.457 673.43 675.48C673.576 675.647 673.966 676.085 674.48 676.663C674.757 676.971 674.732 677.447 674.42 677.723C674.204 677.915 673.91 677.962 673.656 677.867L673.654 677.862Z" fill="black"/>
<path d="M673.782 678.002C673.677 677.963 673.577 677.898 673.493 677.81C673.485 677.799 673.474 677.787 673.463 677.774L673.372 677.673C673.089 677.37 673.102 676.894 673.405 676.61C673.708 676.326 674.184 676.339 674.468 676.642L674.664 676.868C674.875 677.171 674.837 677.595 674.557 677.851C674.342 678.051 674.039 678.098 673.782 678.002Z" fill="black"/>
<path d="M780.217 772.083L777.935 769.757C754.188 745.591 720.641 717.926 693.686 695.701L689.791 692.488C684.98 688.523 681.404 685.561 678.192 682.888C677.608 682.401 674.442 678.867 673.482 677.798C673.204 677.489 673.233 677.015 673.542 676.737C673.85 676.459 674.325 676.488 674.602 676.797C676.959 679.439 678.83 681.47 679.153 681.735C682.364 684.408 685.939 687.365 690.745 691.328L694.641 694.542C720.773 716.094 753.095 742.744 776.731 766.411L635.743 345.713C635.61 345.319 635.825 344.894 636.215 344.763C636.608 344.633 637.034 344.845 637.165 345.234L780.214 772.081L780.217 772.083Z" fill="black"/>
<path d="M514.858 560.646C514.7 560.587 514.565 560.476 514.474 560.322C514.264 559.963 514.387 559.503 514.745 559.296C522.064 555.029 532.326 557.261 536.4 558.423L536.449 558.442C537.041 558.607 537.475 558.745 537.683 558.819C537.741 558.837 537.785 558.857 537.787 558.854C538.173 559.002 538.371 559.437 538.223 559.823C538.079 560.207 537.652 560.404 537.268 560.264L537.222 560.247C537.004 560.174 536.581 560.04 536.008 559.878L535.963 559.861C524.313 556.556 517.777 559.275 515.505 560.599C515.302 560.716 515.068 560.729 514.864 560.652L514.858 560.646Z" fill="black"/>
<path d="M399.954 723.715C399.652 723.602 399.447 723.301 399.469 722.964C399.49 722.639 399.714 722.373 400.009 722.291C400.09 722.257 400.381 722.122 401.381 721.605L401.419 721.587C407.304 718.549 442.98 699.332 458.527 687.805C467.536 681.718 474.568 675.463 479.7 670.895C485.566 665.676 489.106 662.527 491.756 662.647C496.547 662.95 511.576 675.754 522.115 688.499C523.959 690.613 526.205 692.792 528.775 694.96C531.271 697.069 533.971 696.229 535.542 694.462C537.08 692.731 537.643 689.84 535.239 687.594C531.442 684.04 527.335 680.523 523.36 677.123C516.564 671.305 509.534 665.287 503.853 658.911C502.074 656.91 499.673 655.856 497.437 656.087C494.756 656.36 492.05 656.636 489.323 656.916C486.342 657.209 483.476 655.917 481.257 653.27C478.416 649.885 477.312 645.093 478.441 641.066C485.309 618.944 474.556 582.754 423.798 547.457C405.58 534.216 393.31 517.125 389.236 499.328C384.999 481.506 388.759 462.041 399.826 444.522C409.379 429.012 425.966 413.18 445.337 401.101C457.378 393.376 469.299 387.998 474.388 385.701C475.498 385.201 476.481 384.759 476.886 384.545C477.02 384.359 477.24 384.232 477.488 384.233C477.697 384.231 477.868 384.299 477.996 384.398L478.33 384.64L478.293 385.083C478.257 385.436 477.162 386.099 475.007 387.072C469.946 389.355 458.094 394.699 446.141 402.372C426.956 414.341 410.54 429.992 401.103 445.321C390.251 462.503 386.559 481.56 390.702 498.989C394.697 516.44 406.76 533.217 424.672 546.236C476.083 581.985 486.904 618.883 479.885 641.494C478.909 644.984 479.92 649.337 482.415 652.307C484.305 654.558 486.705 655.668 489.179 655.422C491.906 655.146 494.612 654.87 497.293 654.597C500.008 654.316 502.884 655.56 504.982 657.917C510.596 664.216 517.587 670.199 524.343 675.986C528.329 679.398 532.451 682.929 536.268 686.502C539.266 689.308 538.742 693.135 536.67 695.469C534.682 697.706 531.062 698.86 527.809 696.116C525.182 693.898 522.88 691.665 520.975 689.477C509.285 675.338 495.15 664.37 491.678 664.154C489.651 664.062 485.896 667.4 480.702 672.024C475.539 676.62 468.461 682.915 459.398 689.037C443.8 700.602 408.014 719.877 402.079 722.945L402.04 722.962C400.445 723.786 400.421 723.785 400.174 723.769C400.1 723.765 400.025 723.749 399.959 723.724L399.954 723.715Z" fill="black"/>
<path d="M309.413 730.617L306.317 723.82C305.125 721.205 302.04 720.051 299.425 721.243L292.629 724.341C290.014 725.533 288.86 728.619 290.052 731.234L293.148 738.031C294.339 740.646 297.425 741.8 300.04 740.608L306.836 737.51C309.451 736.318 310.605 733.232 309.413 730.617Z" fill="#E6E6E6"/>
<path d="M295.795 741.449C294.307 740.893 293.124 739.789 292.461 738.342L289.364 731.544C288.706 730.098 288.649 728.48 289.207 726.988C289.765 725.496 290.868 724.316 292.315 723.654L299.112 720.555C300.557 719.896 302.175 719.839 303.667 720.397C305.159 720.955 306.338 722.058 307.001 723.505L310.098 730.303C310.756 731.748 310.813 733.366 310.255 734.858C309.697 736.35 308.594 737.53 307.147 738.193L300.35 741.291C298.905 741.95 297.287 742.007 295.795 741.449ZM293.83 737.718C294.323 738.801 295.206 739.625 296.322 740.042C297.437 740.459 298.644 740.417 299.727 739.923L306.524 736.825C307.607 736.331 308.431 735.448 308.848 734.332C309.265 733.216 309.223 732.009 308.729 730.926L305.632 724.128C305.139 723.045 304.256 722.222 303.14 721.805C302.025 721.388 300.818 721.43 299.735 721.923L292.938 725.022C291.855 725.515 291.031 726.399 290.614 727.514C290.197 728.63 290.239 729.837 290.733 730.92L293.83 737.718Z" fill="black"/>
<path d="M210.963 769.29L209.102 765.205C207.568 761.84 209.051 757.873 212.416 756.34L216.501 754.478C219.866 752.944 223.832 754.426 225.365 757.792L225.568 766.311C227.101 769.676 227.275 769.212 223.911 770.742L219.826 772.604C216.461 774.138 212.496 772.655 210.963 769.29Z" fill="#E6E6E6"/>
<path d="M214.443 773.487C212.581 772.791 211.1 771.411 210.276 769.603L208.415 765.518C207.591 763.709 207.522 761.686 208.218 759.824C208.914 757.962 210.294 756.481 212.102 755.657L216.187 753.795C217.995 752.97 220.019 752.901 221.88 753.597C223.741 754.293 225.222 755.673 226.046 757.481L226.11 757.621L226.314 766.141C226.421 766.378 226.522 766.592 226.616 766.791C227.232 768.113 227.543 768.774 227.279 769.478C227.016 770.182 226.347 770.481 225.016 771.071C224.775 771.177 224.511 771.295 224.221 771.427L220.136 773.289C218.327 774.114 216.304 774.183 214.443 773.487ZM221.355 755.001C219.87 754.446 218.257 754.5 216.812 755.159L212.727 757.021C211.281 757.68 210.182 758.862 209.626 760.347C209.071 761.832 209.126 763.445 209.784 764.89L211.646 768.976C212.304 770.422 213.486 771.521 214.97 772.076C216.455 772.631 218.068 772.577 219.513 771.918L223.599 770.055C223.893 769.921 224.163 769.801 224.403 769.695C225.076 769.397 225.77 769.086 225.876 768.93C225.885 768.777 225.562 768.086 225.253 767.421C225.143 767.179 225.017 766.916 224.883 766.621L224.819 766.481L224.614 757.964C223.946 756.587 222.794 755.539 221.351 754.999L221.355 755.001Z" fill="black"/>
<path d="M240.155 704.612L234.768 699.261C234.762 697.197 236.43 695.514 238.494 695.507L243.863 695.489C245.927 695.483 247.609 697.151 247.615 699.215L247.633 704.584C247.639 706.649 245.971 708.331 243.907 708.338C241.844 708.344 240.161 706.676 240.155 704.612Z" fill="#E6E6E6"/>
<path d="M242.328 708.807C240.724 708.207 239.553 706.714 239.42 704.935L234.021 699.575L234.02 699.266C234.012 696.788 236.02 694.767 238.497 694.759L243.866 694.74C245.067 694.736 246.194 695.198 247.044 696.045C247.895 696.889 248.365 698.015 248.369 699.216L248.386 704.585C248.394 707.063 246.387 709.085 243.91 709.093C243.352 709.093 242.82 708.994 242.327 708.81L242.328 708.807ZM235.537 698.963L240.91 704.297L240.911 704.606C240.917 706.253 242.262 707.59 243.908 707.584C245.555 707.578 246.892 706.233 246.886 704.586L246.869 699.217C246.867 698.418 246.552 697.67 245.986 697.105C245.419 696.54 244.667 696.235 243.871 696.239L238.502 696.257C236.956 696.264 235.683 697.449 235.539 698.959L235.537 698.963Z" fill="black"/>
<path d="M420.194 791.175C420.036 791.116 419.897 791.004 419.804 790.845L381.614 724.198C381.408 723.836 381.531 723.377 381.893 723.171C382.255 722.966 382.714 723.089 382.92 723.451L421.11 790.097C421.316 790.459 421.192 790.918 420.83 791.124C420.627 791.24 420.394 791.25 420.194 791.175Z" fill="black"/>
<path d="M364.473 777.517C364.315 777.458 364.176 777.346 364.087 777.188L331.345 720.232C331.138 719.874 331.261 719.415 331.621 719.204C331.979 718.997 332.438 719.121 332.649 719.48L365.391 776.436C365.598 776.794 365.474 777.254 365.115 777.464C364.911 777.58 364.679 777.59 364.478 777.515L364.473 777.517Z" fill="black"/>
<path d="M582.317 162.751C581.244 163.734 580.067 164.65 578.781 165.493L568.096 172.501L552.365 182.812C550.203 184.23 547.29 183.141 546.588 180.652L541.485 162.551L538.018 150.252C537.601 148.772 537.314 147.309 537.149 145.863C536.645 141.515 537.219 137.341 538.636 133.551C538.696 133.389 538.756 133.231 538.828 133.069C540.677 128.393 543.816 124.341 547.778 121.349C554.678 116.131 564.064 114.133 573.448 117.642C582.832 121.151 588.604 128.816 590.392 137.283C591.416 142.138 591.126 147.256 589.457 151.999C588.063 155.975 585.699 159.68 582.328 162.755L582.317 162.751Z" fill="#E38BB4"/>
<path d="M548.557 184.18C547.087 183.631 545.996 182.449 545.571 180.938L537.001 150.537C536.575 149.038 536.274 147.506 536.097 145.983C535.589 141.593 536.108 137.287 537.642 133.183C537.71 133.004 537.775 132.828 537.854 132.649C539.745 127.872 542.959 123.663 547.133 120.511C554.906 114.632 564.628 113.225 573.805 116.656C582.981 120.087 589.393 127.523 591.408 137.065C592.488 142.19 592.152 147.475 590.434 152.348C588.92 156.664 586.427 160.425 583.024 163.533C581.891 164.566 580.659 165.525 579.353 166.377L552.937 183.696C551.625 184.557 550.027 184.734 548.556 184.184L548.557 184.18ZM573.069 118.623C564.582 115.45 555.59 116.749 548.404 122.185C544.536 125.107 541.561 129.001 539.8 133.453C539.721 133.632 539.672 133.774 539.618 133.918C538.201 137.708 537.721 141.684 538.19 145.739C538.352 147.151 538.634 148.573 539.029 149.963L547.598 180.364C547.842 181.225 548.457 181.897 549.294 182.21C550.132 182.523 551.04 182.421 551.785 181.93L578.201 164.61C579.413 163.815 580.559 162.928 581.606 161.972C584.751 159.105 587.053 155.629 588.452 151.643C590.041 147.135 590.351 142.241 589.35 137.495C587.486 128.675 581.552 121.795 573.069 118.623Z" fill="black"/>
<path d="M589.447 151.995L538.821 133.067C540.669 128.391 543.809 124.338 547.771 121.347L590.381 137.279C591.405 142.134 591.116 147.252 589.447 151.995Z" fill="#FBE64D"/>
<path d="M590.081 153.356L537.45 133.677L537.842 132.681C539.746 127.869 542.959 123.663 547.134 120.507L547.598 120.159L591.292 136.496L591.409 137.061C592.489 142.186 592.153 147.472 590.435 152.345L590.078 153.355L590.081 153.356ZM540.213 132.464L588.788 150.626C590.026 146.584 590.258 142.275 589.464 138.059L547.948 122.536C544.585 125.19 541.932 128.598 540.213 132.464Z" fill="black"/>
<path d="M582.317 162.751C581.244 163.734 580.067 164.65 578.782 165.493L568.096 172.501L541.485 162.551L538.019 150.252C537.601 148.772 537.314 147.309 537.149 145.863L582.321 162.753L582.317 162.751Z" fill="#FBE64D"/>
<path d="M568.224 173.671L540.613 163.348L537.001 150.537C536.575 149.038 536.274 147.506 536.097 145.983L535.901 144.277L584.292 162.371L583.025 163.529C581.896 164.564 580.66 165.521 579.355 166.373L568.224 173.671ZM542.35 161.751L567.965 171.328L578.203 164.615C578.921 164.145 579.614 163.642 580.277 163.112L538.448 147.472C538.601 148.307 538.794 149.142 539.029 149.963L542.351 161.747L542.35 161.751Z" fill="black"/>
<path d="M560.803 172.217L553.988 169.668C553.442 169.464 552.838 169.74 552.634 170.285C552.43 170.831 552.705 171.435 553.251 171.639L558.145 173.469C557.363 173.995 556.373 174.11 555.49 173.78L551.25 172.195C550.705 171.991 550.101 172.266 549.897 172.812C549.693 173.357 549.968 173.962 550.513 174.166L552.938 175.072C553.694 175.355 553.813 176.378 553.143 176.829C552.876 177.006 552.541 177.045 552.242 176.934L551.39 176.615C550.845 176.411 550.241 176.687 550.037 177.232C549.833 177.778 550.108 178.382 550.653 178.586L552.487 179.272C552.803 179.39 553.16 179.347 553.443 179.16L561.019 174.074C561.346 173.855 561.522 173.468 561.479 173.079C561.436 172.69 561.173 172.355 560.803 172.217Z" fill="black"/>
<path d="M574.979 162.459L561.418 157.388C560.873 157.184 560.269 157.46 560.065 158.005C559.861 158.551 560.136 159.155 560.681 159.359L572.325 163.712L571.109 164.529C570.842 164.706 570.507 164.745 570.207 164.634L565.975 163.051C565.429 162.847 564.825 163.123 564.621 163.668C564.417 164.213 564.692 164.818 565.238 165.022L568.538 166.256L567.322 167.073C567.056 167.25 566.72 167.289 566.421 167.177L561.052 165.169C560.506 164.966 559.902 165.241 559.698 165.786C559.494 166.332 559.769 166.936 560.315 167.14L566.191 169.337C566.81 169.569 567.499 169.485 568.048 169.121L575.202 164.319C575.528 164.1 575.705 163.713 575.662 163.324C575.619 162.935 575.356 162.599 574.986 162.461L574.979 162.459Z" fill="black"/>
<path d="M571.987 135.098L584.101 139.628C584.717 139.858 585.149 140.408 585.246 141.059C585.286 141.306 585.316 141.558 585.343 141.809L577.278 138.793C576.733 138.589 576.129 138.865 575.925 139.41C575.721 139.956 575.996 140.56 576.541 140.764L584.733 143.827C585.144 143.981 585.417 144.388 585.378 144.826C585.351 145.133 585.314 145.436 585.269 145.74L572.355 140.912C571.81 140.708 571.206 140.983 571.002 141.529C570.798 142.074 571.073 142.679 571.618 142.883L585.689 148.144C585.974 148.25 586.291 148.228 586.558 148.083C586.825 147.938 587.016 147.685 587.084 147.385L587.166 147.015C587.755 144.335 587.671 141.524 586.926 138.883C586.835 138.568 586.594 138.313 586.288 138.199L572.727 133.128C572.182 132.925 571.577 133.2 571.373 133.745C571.169 134.291 571.445 134.895 571.99 135.099L571.987 135.098Z" fill="black"/>
<path d="M585.153 153.591C585.056 153.282 584.82 153.033 584.517 152.92L568.071 146.771C567.526 146.567 566.921 146.842 566.717 147.388C566.514 147.933 566.789 148.538 567.334 148.742L582.521 154.42L582.123 155.001L578.105 153.499C577.559 153.295 576.955 153.57 576.751 154.116C576.547 154.661 576.822 155.266 577.368 155.47L580.893 156.788L580.495 157.369L570.193 153.517C569.648 153.313 569.043 153.589 568.839 154.134C568.635 154.68 568.911 155.284 569.456 155.488L580.529 159.628C580.983 159.798 581.493 159.635 581.765 159.24L585.016 154.503C585.201 154.235 585.25 153.9 585.153 153.591Z" fill="black"/>
<path d="M576.028 127.11C575.482 126.906 574.878 127.182 574.674 127.727C574.47 128.273 574.746 128.877 575.291 129.081L584.763 132.623C585.111 132.753 585.505 132.687 585.793 132.454C586.082 132.217 586.225 131.845 586.169 131.48C586.147 131.323 585.887 129.746 585.232 127.744C585.4 127.273 585.2 126.777 584.794 126.521C583.739 123.8 581.963 120.697 579.074 119.264C578.549 118.995 577.924 119.219 577.665 119.74C577.406 120.261 577.62 120.89 578.14 121.149C578.925 121.539 579.617 122.102 580.221 122.77C580.911 123.533 580.081 124.711 579.117 124.35L577.791 123.854C577.245 123.65 576.641 123.926 576.437 124.471C576.233 125.017 576.508 125.621 577.054 125.825L582.68 127.929C582.961 128.034 583.187 128.267 583.28 128.554C583.445 129.069 583.582 129.55 583.695 129.977L576.028 127.11Z" fill="black"/>
<path d="M539.376 195.188L548.015 198.418C549.246 198.878 549.868 200.25 549.409 201.479L546.564 209.087C545.213 212.701 541.181 214.539 537.567 213.188C533.953 211.837 532.116 207.805 533.468 204.191L536.313 196.582C536.773 195.35 538.145 194.728 539.373 195.187L539.376 195.188Z" fill="#E38BB4"/>
<path d="M537.197 214.177C533.045 212.625 530.927 207.982 532.481 203.826L535.326 196.217C535.989 194.443 537.97 193.543 539.74 194.205L548.378 197.435C550.151 198.098 551.051 200.079 550.389 201.849L547.544 209.458C545.992 213.611 541.349 215.73 537.194 214.176L537.197 214.177ZM539.006 196.177C538.32 195.921 537.556 196.269 537.3 196.955L534.455 204.564C533.308 207.633 534.869 211.06 537.938 212.208C541.006 213.355 544.433 211.792 545.581 208.724L548.426 201.115C548.682 200.429 548.331 199.664 547.648 199.408L539.01 196.178L539.006 196.177Z" fill="black"/>
<path d="M549.614 183.97L547.644 183.233L542.708 196.434L544.679 197.171L549.614 183.97Z" fill="black"/>
<path d="M742.553 668.665C742.293 668.568 742.067 668.367 741.951 668.087L547.336 205.726L542.846 204.047C542.301 203.843 542.025 203.239 542.229 202.693C542.433 202.148 543.037 201.872 543.583 202.076L548.924 204.073L549.1 204.492L743.892 667.272C744.118 667.806 743.866 668.426 743.329 668.65C743.072 668.758 742.796 668.756 742.553 668.665Z" fill="black"/>
<path d="M545.133 210.201L538.18 207.601C537.635 207.397 537.359 206.793 537.563 206.247C537.767 205.702 538.371 205.426 538.917 205.63L545.87 208.23C546.415 208.434 546.69 209.038 546.486 209.584C546.282 210.129 545.678 210.405 545.133 210.201Z" fill="black"/>
<path d="M397.459 246.367C396.635 247.122 395.73 247.826 394.743 248.472L386.534 253.854L374.448 261.778C372.789 262.867 370.548 262.029 370.011 260.119L366.09 246.214L363.426 236.767C363.105 235.632 362.884 234.506 362.757 233.396C362.37 230.054 362.811 226.849 363.899 223.939C363.945 223.816 363.991 223.693 364.046 223.568C365.465 219.976 367.877 216.862 370.921 214.566C376.221 210.559 383.432 209.024 390.638 211.718C397.844 214.413 402.28 220.303 403.654 226.805C404.442 230.534 404.219 234.466 402.937 238.11C401.867 241.164 400.052 244.011 397.461 246.372L397.459 246.367Z" fill="#A4D827"/>
<path d="M371.528 262.829C370.399 262.406 369.564 261.497 369.236 260.335L362.651 236.982C362.325 235.829 362.09 234.655 361.959 233.482C361.567 230.111 361.966 226.802 363.145 223.649C363.196 223.512 363.248 223.374 363.307 223.236C364.759 219.567 367.227 216.335 370.435 213.912C376.408 209.394 383.874 208.315 390.925 210.951C397.976 213.587 402.899 219.299 404.45 226.63C405.28 230.566 405.02 234.629 403.702 238.368C402.539 241.684 400.624 244.574 398.008 246.957C397.138 247.751 396.189 248.487 395.189 249.144L374.895 262.447C373.886 263.109 372.66 263.244 371.531 262.822L371.528 262.829ZM390.358 212.468C383.838 210.03 376.932 211.026 371.412 215.204C368.44 217.446 366.153 220.441 364.803 223.86C364.743 223.998 364.702 224.107 364.662 224.216C363.573 227.126 363.205 230.182 363.564 233.296C363.688 234.382 363.905 235.474 364.208 236.542L370.793 259.894C370.979 260.554 371.455 261.072 372.095 261.312C372.736 261.551 373.434 261.475 374.009 261.097L394.303 247.794C395.233 247.183 396.112 246.505 396.917 245.767C399.334 243.562 401.102 240.893 402.178 237.834C403.396 234.371 403.638 230.614 402.869 226.965C401.436 220.188 396.878 214.906 390.362 212.469L390.358 212.468Z" fill="black"/>
<path d="M364.472 271.286L371.108 273.767C372.055 274.121 372.535 275.175 372.181 276.121L369.995 281.967C368.957 284.744 365.863 286.154 363.087 285.116C360.311 284.078 358.901 280.984 359.939 278.207L362.125 272.361C362.479 271.415 363.533 270.934 364.479 271.288L364.472 271.286Z" fill="#A4D827"/>
<path d="M362.801 285.871C359.609 284.678 357.987 281.111 359.179 277.923L361.365 272.077C361.874 270.715 363.397 270.021 364.759 270.53L371.395 273.012C372.756 273.521 373.45 275.044 372.941 276.406L370.755 282.251C369.562 285.443 365.995 287.066 362.808 285.874L362.801 285.871ZM364.189 272.042C363.662 271.845 363.075 272.115 362.879 272.639L360.694 278.485C359.812 280.843 361.014 283.474 363.368 284.355C365.725 285.236 368.356 284.034 369.237 281.679L371.422 275.834C371.62 275.306 371.35 274.72 370.825 274.524L364.189 272.042Z" fill="black"/>
<path d="M372.339 262.666L370.826 262.101L367.033 272.243L368.546 272.809L372.339 262.666Z" fill="black"/>
<path d="M368.896 282.815L363.554 280.818C363.136 280.662 362.924 280.198 363.081 279.779C363.237 279.36 363.702 279.149 364.12 279.305L369.462 281.302C369.88 281.459 370.092 281.923 369.935 282.342C369.779 282.761 369.314 282.972 368.896 282.815Z" fill="black"/>
<path d="M197.119 392.293C196.296 393.048 195.391 393.753 194.403 394.398L186.194 399.781L174.108 407.705C172.449 408.793 170.208 407.955 169.671 406.046L165.75 392.141L163.086 382.693C162.765 381.558 162.544 380.432 162.418 379.322C162.031 375.98 162.471 372.776 163.559 369.865C163.605 369.742 163.651 369.619 163.706 369.495C165.125 365.902 167.537 362.788 170.581 360.493C175.881 356.486 183.092 354.95 190.299 357.645C197.505 360.339 201.94 366.229 203.314 372.732C204.102 376.46 203.879 380.392 202.597 384.036C201.527 387.09 199.713 389.937 197.122 392.298L197.119 392.293Z" fill="#00A6D8"/>
<path d="M171.188 408.755C170.059 408.333 169.224 407.423 168.896 406.261L162.312 382.909C161.985 381.756 161.75 380.581 161.619 379.409C161.227 376.037 161.626 372.729 162.805 369.575C162.857 369.438 162.908 369.301 162.968 369.163C164.42 365.494 166.888 362.261 170.095 359.838C176.068 355.32 183.534 354.241 190.585 356.877C197.637 359.514 202.56 365.225 204.11 372.556C204.94 376.493 204.682 380.552 203.363 384.294C202.199 387.61 200.284 390.5 197.669 392.883C196.798 393.677 195.849 394.413 194.85 395.071L174.556 408.373C173.546 409.035 172.32 409.17 171.191 408.748L171.188 408.755ZM190.018 358.394C183.498 355.956 176.593 356.952 171.072 361.13C168.1 363.372 165.815 366.364 164.463 369.786C164.403 369.924 164.363 370.033 164.322 370.142C163.234 373.053 162.865 376.108 163.225 379.223C163.348 380.308 163.566 381.4 163.868 382.468L170.453 405.821C170.639 406.48 171.115 406.999 171.755 407.238C172.396 407.478 173.094 407.402 173.669 407.023L193.963 393.72C194.893 393.109 195.772 392.431 196.578 391.693C198.994 389.488 200.762 386.82 201.838 383.76C203.056 380.297 203.298 376.54 202.529 372.891C201.096 366.114 196.538 360.832 190.022 358.395L190.018 358.394Z" fill="black"/>
<path d="M164.132 417.212L170.768 419.693C171.715 420.047 172.195 421.101 171.841 422.048L169.655 427.893C168.617 430.67 165.523 432.08 162.747 431.042C159.971 430.004 158.561 426.91 159.599 424.133L161.785 418.288C162.139 417.341 163.193 416.861 164.139 417.215L164.132 417.212Z" fill="#00A6D8"/>
<path d="M162.46 431.798C159.269 430.604 157.647 427.038 158.839 423.849L161.025 418.004C161.534 416.642 163.057 415.947 164.419 416.457L171.055 418.938C172.416 419.447 173.11 420.97 172.601 422.332L170.415 428.177C169.222 431.369 165.655 432.992 162.467 431.8L162.46 431.798ZM163.849 417.969C163.321 417.771 162.735 418.041 162.539 418.566L160.353 424.411C159.472 426.769 160.674 429.401 163.028 430.281C165.382 431.161 168.016 429.96 168.897 427.606L171.082 421.76C171.28 421.232 171.01 420.646 170.485 420.45L163.849 417.969Z" fill="black"/>
<path d="M171.999 408.593L170.486 408.027L166.694 418.17L168.207 418.735L171.999 408.593Z" fill="black"/>
<path d="M168.556 428.742L163.215 426.745C162.796 426.588 162.585 426.124 162.741 425.705C162.898 425.286 163.362 425.075 163.781 425.231L169.122 427.228C169.541 427.385 169.752 427.849 169.596 428.268C169.439 428.687 168.975 428.898 168.556 428.742Z" fill="black"/>
<path d="M771.886 484.279C771.063 485.034 770.158 485.739 769.17 486.385L760.962 491.767L748.875 499.691C747.217 500.78 744.975 499.942 744.438 498.032L740.517 484.127L737.853 474.679C737.532 473.544 737.311 472.419 737.185 471.309C736.798 467.967 737.238 464.762 738.326 461.852C738.372 461.728 738.418 461.605 738.473 461.481C739.892 457.888 742.304 454.775 745.348 452.479C750.648 448.472 757.86 446.937 765.066 449.631C772.272 452.325 776.707 458.215 778.081 464.718C778.869 468.446 778.646 472.378 777.364 476.023C776.294 479.076 774.48 481.924 771.889 484.284L771.886 484.279Z" fill="#E56DBA"/>
<path d="M745.952 500.74C744.823 500.318 743.988 499.408 743.66 498.247L737.075 474.894C736.748 473.741 736.514 472.566 736.383 471.394C735.991 468.022 736.39 464.714 737.569 461.56C737.62 461.423 737.672 461.286 737.731 461.148C739.183 457.479 741.651 454.246 744.859 451.823C750.832 447.305 758.298 446.226 765.345 448.861C772.393 451.496 777.32 457.209 778.87 464.54C779.7 468.476 779.441 472.539 778.123 476.278C776.959 479.594 775.044 482.484 772.427 484.871C771.557 485.665 770.612 486.402 769.608 487.058L749.314 500.361C748.305 501.022 747.079 501.158 745.95 500.735L745.952 500.74ZM764.782 450.379C758.262 447.942 751.356 448.938 745.836 453.115C742.864 455.357 740.578 458.349 739.227 461.771C739.167 461.909 739.126 462.018 739.085 462.127C737.997 465.038 737.629 468.093 737.988 471.208C738.112 472.293 738.329 473.385 738.632 474.453L745.216 497.806C745.403 498.465 745.879 498.984 746.519 499.223C747.16 499.463 747.858 499.387 748.432 499.008L768.727 485.705C769.657 485.094 770.537 484.413 771.341 483.679C773.758 481.473 775.526 478.805 776.601 475.745C777.82 472.282 778.062 468.526 777.292 464.877C775.86 458.099 771.302 452.817 764.785 450.381L764.782 450.379Z" fill="black"/>
<path d="M738.899 509.198L745.535 511.68C746.482 512.034 746.962 513.088 746.608 514.034L744.423 519.88C743.384 522.656 740.29 524.067 737.514 523.029C734.738 521.991 733.328 518.896 734.366 516.12L736.552 510.274C736.906 509.328 737.96 508.847 738.906 509.201L738.899 509.198Z" fill="#E56DBA"/>
<path d="M737.228 523.784C734.036 522.591 732.414 519.024 733.606 515.836L735.792 509.99C736.301 508.628 737.824 507.934 739.186 508.443L745.822 510.924C747.184 511.433 747.878 512.956 747.368 514.318L745.183 520.164C743.989 523.356 740.423 524.979 737.235 523.787L737.228 523.784ZM738.617 509.955C738.089 509.758 737.502 510.028 737.305 510.556L735.119 516.401C734.238 518.759 735.44 521.391 737.794 522.271C740.148 523.151 742.782 521.95 743.663 519.596L745.848 513.75C746.046 513.222 745.777 512.632 745.253 512.436L738.617 509.955Z" fill="black"/>
<path d="M746.766 500.579L745.253 500.014L741.461 510.156L742.974 510.722L746.766 500.579Z" fill="black"/>
<path d="M743.323 520.728L737.982 518.731C737.563 518.575 737.352 518.11 737.509 517.692C737.665 517.273 738.129 517.061 738.548 517.218L743.889 519.215C744.308 519.372 744.519 519.836 744.363 520.254C744.206 520.673 743.742 520.885 743.323 520.728Z" fill="black"/>
<path d="M670.834 306.727C670.01 307.482 669.105 308.187 668.118 308.832L659.909 314.215L647.822 322.139C646.164 323.228 643.922 322.39 643.385 320.48L639.464 306.575L636.801 297.127C636.479 295.992 636.258 294.867 636.132 293.756C635.745 290.415 636.185 287.21 637.274 284.299C637.32 284.176 637.366 284.053 637.42 283.929C638.84 280.336 641.251 277.223 644.295 274.927C649.595 270.92 656.807 269.384 664.013 272.079C671.219 274.773 675.654 280.663 677.029 287.166C677.816 290.894 677.594 294.826 676.311 298.47C675.242 301.524 673.427 304.372 670.836 306.732L670.834 306.727Z" fill="#BE9AF8"/>
<path d="M644.898 323.192C643.768 322.769 642.933 321.859 642.606 320.698L636.021 297.345C635.694 296.192 635.46 295.017 635.329 293.845C634.937 290.474 635.336 287.165 636.515 284.012C636.566 283.875 636.617 283.737 636.677 283.599C638.129 279.93 640.597 276.697 643.805 274.275C649.777 269.757 657.243 268.677 664.295 271.314C671.346 273.95 676.269 279.662 677.819 286.992C678.649 290.929 678.391 294.988 677.072 298.731C675.908 302.046 673.994 304.936 671.377 307.323C670.506 308.117 669.557 308.853 668.558 309.511L648.264 322.813C647.254 323.475 646.029 323.61 644.899 323.188L644.898 323.192ZM663.728 272.831C657.208 270.393 650.302 271.389 644.782 275.566C641.81 277.809 639.524 280.801 638.172 284.222C638.113 284.361 638.072 284.47 638.031 284.579C636.943 287.489 636.575 290.544 636.934 293.659C637.058 294.744 637.275 295.836 637.578 296.904L644.162 320.257C644.349 320.916 644.825 321.435 645.465 321.675C646.105 321.914 646.803 321.838 647.378 321.459L667.672 308.157C668.602 307.546 669.483 306.864 670.287 306.13C672.704 303.925 674.471 301.256 675.547 298.197C676.766 294.733 677.007 290.977 676.238 287.328C674.806 280.551 670.248 275.268 663.731 272.832L663.728 272.831Z" fill="black"/>
<path d="M637.846 331.646L644.482 334.127C645.429 334.481 645.909 335.535 645.555 336.482L643.369 342.328C642.331 345.104 639.237 346.515 636.461 345.477C633.685 344.439 632.275 341.344 633.313 338.568L635.499 332.722C635.853 331.775 636.907 331.295 637.853 331.649L637.846 331.646Z" fill="#BE9AF8"/>
<path d="M636.175 346.232C632.983 345.039 631.361 341.472 632.553 338.283L634.739 332.438C635.248 331.076 636.771 330.382 638.133 330.891L644.769 333.372C646.13 333.881 646.824 335.404 646.315 336.766L644.129 342.612C642.936 345.804 639.37 347.427 636.182 346.235L636.175 346.232ZM637.563 332.403C637.036 332.206 636.449 332.476 636.252 333.004L634.066 338.849C633.185 341.207 634.386 343.839 636.74 344.719C639.098 345.6 641.729 344.398 642.609 342.043L644.795 336.198C644.992 335.67 644.724 335.08 644.199 334.884L637.563 332.403Z" fill="black"/>
<path d="M645.712 323.031L644.199 322.465L640.407 332.607L641.92 333.173L645.712 323.031Z" fill="black"/>
<path d="M642.265 343.178L636.924 341.181C636.505 341.025 636.294 340.56 636.45 340.142C636.607 339.723 637.071 339.511 637.49 339.668L642.831 341.665C643.25 341.822 643.461 342.286 643.305 342.704C643.148 343.123 642.684 343.335 642.265 343.178Z" fill="black"/>
<path d="M27.5376 677.25C27.5024 677.237 27.4707 677.225 27.4382 677.205C27.0757 677.005 26.9412 676.55 27.1422 676.184L162.085 430.678C162.285 430.316 162.74 430.181 163.106 430.382C163.469 430.582 163.603 431.037 163.402 431.404L28.4593 676.909C28.2749 677.241 27.8824 677.379 27.5376 677.25Z" fill="black"/>
<path d="M18.4634 680.259C18.3824 680.229 18.3033 680.183 18.2342 680.121C17.9231 679.849 17.8879 679.374 18.162 679.06L362.517 284.622C362.79 284.311 363.263 284.279 363.579 284.55C363.89 284.823 363.925 285.297 363.651 285.612L19.2924 680.048C19.0816 680.29 18.7484 680.366 18.4634 680.259Z" fill="black"/>
<path d="M788.725 776.006C788.489 775.918 788.304 775.716 788.25 775.451L736.772 523.18C736.688 522.772 736.952 522.377 737.357 522.292C737.761 522.207 738.16 522.472 738.245 522.877L789.723 775.148C789.807 775.556 789.544 775.951 789.139 776.036C788.995 776.066 788.853 776.049 788.726 776.002L788.725 776.006Z" fill="black"/>
</g>
<defs>
<clipPath id="clip0_581_204">
<rect width="774.846" height="796.045" fill="white" transform="translate(278.789) rotate(20.5006)"/>
</clipPath>
<clipPath id="clip1_581_204">
<rect width="700.387" height="352.723" fill="white" transform="translate(759.598 737.759) rotate(-174.885)"/>
</clipPath>
</defs>
</svg>
